<svg width="351" height="351" viewBox="0 0 351 351" fill="none" xmlns="http://www.w3.org/2000/svg">
<circle cx="175.031" cy="175.732" r="170.93" fill="black" fill-opacity="0.95"/>
<mask id="mask0_180_314" style="mask-type:alpha" maskUnits="userSpaceOnUse" x="0" y="0" width="351" height="351">
<circle cx="175.031" cy="175.732" r="175" fill="black"/>
</mask>
<g mask="url(#mask0_180_314)">
<path d="M428.584 -0.525703C428.853 -0.420647 429.25 -0.397301 429.39 -0.198853C430.488 1.36533 431.528 2.9762 432.626 4.55206C432.79 4.77385 433.246 4.99563 433.421 4.91392C433.596 4.83221 434.04 4.3653 433.993 4.13183C433.869 3.24973 433.633 2.38688 433.292 1.56377C432.825 0.54821 432.124 -0.385628 431.458 -1.6113C432.802 -1.38951 432.404 0.54821 433.9 -0.187187C434.975 -2.10157 433.316 -3.6891 432.942 -5.41671L434.11 -5.75523C434.11 -7.62292 434.11 -9.3155 434.11 -10.9964C434.051 -11.2514 433.934 -11.4894 433.768 -11.6918C433.602 -11.8943 433.391 -12.0557 433.152 -12.1637C430.379 -13.2299 427.587 -14.2337 424.775 -15.1754C421.48 -16.2843 418.863 -18.4672 416.176 -20.5216C413.489 -22.5761 411.187 -24.8873 408.559 -26.8951C405.747 -29.1187 402.788 -31.1505 399.703 -32.9767C395.648 -35.253 391.384 -37.1207 387.201 -39.1518C383.698 -40.7697 379.986 -41.8933 376.172 -42.4903C370.538 -43.466 364.805 -43.7443 359.103 -43.319C357.077 -43.0593 355.031 -42.9967 352.993 -43.1323C352.415 -43.2609 351.813 -43.2191 351.259 -43.0118C350.705 -42.8045 350.224 -42.4408 349.873 -41.965C350.245 -41.7753 350.637 -41.6266 351.042 -41.5214C354.278 -41.0428 357.537 -40.7043 360.739 -40.0973C364.092 -39.5941 367.398 -38.8132 370.623 -37.7627C374.688 -36.2452 378.556 -34.1907 382.493 -32.3347C387.617 -29.7418 392.424 -26.5651 396.817 -22.8679C400.829 -19.6316 404.612 -16.1213 408.138 -12.3622C411.982 -8.26492 415.393 -3.74746 419.015 0.559883C419.669 1.33031 420.336 2.17075 421.562 1.86726C421.445 2.47425 421.025 3.2797 421.27 3.65324C421.831 4.55206 422.637 5.42753 424.051 4.82053V2.97621C424.787 3.60655 425.979 4.14352 426.165 4.89059C426.528 6.37306 426.937 7.56371 428.502 8.10067C428.315 8.57926 428.175 8.96447 427.906 9.6415C427.194 8.88276 426.119 8.22906 426.177 7.70377C426.255 7.23002 426.158 6.74423 425.904 6.33643C425.651 5.92862 425.258 5.62644 424.799 5.4859C424.556 5.42991 424.304 5.427 424.06 5.47737C423.816 5.52774 423.585 5.6302 423.385 5.77773C423.245 5.88279 423.385 6.68822 423.595 6.94504C424.121 7.59872 425.032 8.03062 425.336 8.74268C425.757 9.74655 425.897 10.8322 426.972 11.4742C427.205 11.6143 427.287 12.1162 427.345 12.4664C427.638 14.1006 428.128 14.5442 429.927 14.6843L429.262 16.692C428.912 16.3288 428.592 15.9385 428.304 15.5247C426.808 13.2718 425.383 10.9606 423.864 8.71934C420.594 3.6541 416.871 -1.10463 412.741 -5.49842C410.019 -8.31162 407.285 -11.1015 404.563 -13.938C398.721 -20.0547 391.711 -24.5722 384.701 -29.113C381.408 -31.1852 377.986 -33.045 374.455 -34.681C370.55 -36.5306 366.423 -37.8686 362.176 -38.6615C359.5 -39.1518 356.801 -39.4903 354.114 -39.8288C350.738 -40.2957 347.361 -40.716 343.985 -41.1595C343.59 -41.2421 343.199 -41.3473 342.816 -41.4747V-41.965C343.985 -42.2451 345.282 -42.4669 346.485 -42.8054C350.919 -44.0455 355.518 -44.589 360.119 -44.4163C364.863 -44.1829 369.618 -44.2879 374.361 -44.0661C376.422 -43.9139 378.462 -43.5502 380.448 -42.9805C383.107 -42.2742 385.727 -41.4326 388.3 -40.4592C391.044 -39.4561 393.724 -38.2866 396.326 -36.9572C398.593 -35.7899 400.602 -34.109 402.834 -32.86C406.173 -31.0926 409.308 -28.963 412.181 -26.5099C414.739 -24.1753 417.59 -22.2842 420.23 -20.078C422.871 -17.8718 426.457 -16.2143 429.647 -14.3816C430.264 -14.0768 430.935 -13.8945 431.622 -13.8446C432.732 -13.7162 433.246 -14.3116 432.79 -15.3621C432.196 -17.0909 431.482 -18.7759 430.652 -20.4049C428.479 -24.3854 426.306 -28.3776 423.887 -32.218C422.134 -34.9035 420.214 -37.4766 418.139 -39.9222C416.729 -41.4953 415.239 -42.9954 413.676 -44.4163C414.167 -44.2762 414.517 -44.2879 414.692 -44.1128C417.029 -41.7782 419.366 -39.3385 421.808 -36.9689C422.42 -36.4517 423.073 -35.9834 423.759 -35.5682L423.981 -37.1557H424.366C424.366 -36.2102 424.366 -35.2647 424.366 -34.3191C424.366 -33.3736 424.588 -32.4515 425.967 -32.5799C426.247 -32.5799 426.715 -32.0896 426.855 -31.7394C427.132 -30.6343 427.476 -29.5468 427.883 -28.4826C428.21 -27.8523 429.051 -27.4904 429.647 -27.0002C430.009 -26.1831 430.23 -25.3109 430.301 -24.4204C430.406 -23.8787 430.63 -23.3672 430.958 -22.9229C431.285 -22.4787 431.707 -22.113 432.194 -21.8523C432.389 -21.68 432.633 -21.5729 432.893 -21.546C433.152 -21.5191 433.413 -21.5738 433.639 -21.7023C433.866 -21.8309 434.047 -22.027 434.156 -22.2632C434.266 -22.4994 434.299 -22.7638 434.25 -23.0196C434.25 -25.8328 434.25 -28.6577 434.25 -31.4709C434.301 -32.1109 434.132 -32.749 433.771 -33.2802C431.82 -35.1129 429.799 -36.8872 427.731 -38.5798C426.154 -39.8755 424.471 -41.0195 422.836 -42.2335C422.939 -42.2907 423.056 -42.3207 423.175 -42.3207C423.293 -42.3207 423.41 -42.2907 423.513 -42.2335L432.533 -36.1985C432.825 -36.0117 433.339 -35.7549 433.479 -35.86C433.754 -36.1399 433.934 -36.4994 433.993 -36.8872C434.391 -38.4631 433.164 -39.3152 432.404 -40.3891L429.741 -43.9961C430.699 -43.2257 431.633 -42.4086 432.626 -41.6615C433.14 -41.3616 433.68 -41.1077 434.239 -40.9027C434.311 -42.2753 434.311 -43.6507 434.239 -45.0233C434.239 -45.3735 433.526 -45.747 433.07 -45.9455C432.637 -46.1028 432.175 -46.1665 431.715 -46.1322C430.932 -46.1322 430.161 -46.0389 429.378 -45.9922L429.799 -43.9611C429.522 -44.2358 429.226 -44.4894 428.911 -44.7198C428.07 -45.2334 427.229 -46.0622 426.341 -46.1439C424.004 -46.3424 421.667 -46.1439 419.331 -46.1439C418.817 -44.4747 418.676 -44.358 417.52 -45.4435C416.538 -46.354 415.358 -45.747 414.33 -46.1322C414.213 -46.1322 413.828 -45.8521 413.769 -45.642C413.361 -44.2412 412.765 -44.7315 411.935 -45.3035C411.269 -45.7809 410.486 -46.0674 409.669 -46.1322C407.858 -46.1322 406.012 -45.7937 404.224 -45.9688C401.815 -46.2023 399.389 -46.2023 396.98 -45.9688C394.796 -45.7587 392.564 -45.9688 390.356 -45.9688H380.647C376.336 -45.9688 372.025 -45.9688 367.714 -45.9688C364.968 -45.9688 362.222 -46.2023 359.535 -46.2023C357.117 -46.2023 354.71 -45.9805 352.292 -45.9688C346.275 -45.9688 340.246 -45.9688 334.229 -45.9688C333.6 -45.9586 333.001 -45.703 332.558 -45.2568C331.774 -44.298 331.096 -43.2569 330.537 -42.1517C328.481 -38.1712 326.366 -34.2141 324.497 -30.1402C323.212 -27.3153 322.265 -24.3037 321.214 -21.3971C320.257 -19.0361 319.456 -16.6145 318.819 -14.1481C317.966 -10.191 317.463 -6.16378 316.821 -2.15993C316.756 -1.9349 316.756 -1.69627 316.821 -1.47123C316.973 -1.13271 317.23 -0.60743 317.452 -0.595757C317.662 -0.602173 317.868 -0.654617 318.056 -0.74942C318.244 -0.844215 318.408 -0.979042 318.538 -1.14437C318.842 -1.63464 318.842 -2.31168 319.146 -2.81362C320.793 -5.62682 322.464 -8.42834 324.17 -11.1949C325.221 -12.8991 325.245 -12.8524 323.34 -13.5295C323.095 -13.6112 322.978 -14.0431 322.791 -14.3232C323.048 -14.44 323.329 -14.6851 323.551 -14.6384C324.999 -14.3816 326.448 -14.1365 327.862 -13.7513C331.18 -12.8291 334.474 -11.8252 337.781 -10.868C342.879 -9.486 347.832 -7.6175 352.572 -5.2883C357.678 -2.66187 362.748 0.0696259 367.76 2.88283C370.006 4.14058 372.186 5.51199 374.291 6.99171C377.399 9.13956 380.472 11.3224 383.463 13.622C387.342 16.6337 391.162 19.7387 394.948 22.8787C397.071 24.5745 399.081 26.4072 400.964 28.3651C403.663 31.3067 406.07 34.5167 409.54 36.6412C409.669 36.7229 409.704 36.9564 409.809 37.0965C410.148 37.5984 410.515 38.0816 410.907 38.5439C411.351 39.0576 411.9 39.4778 412.344 39.9797C412.788 40.4817 413.138 41.4739 413.734 41.7307C415.16 42.326 414.844 44.4388 416.527 44.684C416.527 44.684 416.527 44.859 416.527 44.9524C416.375 46.1197 417.158 46.4583 417.964 46.8902C418.149 46.9837 418.314 47.1136 418.449 47.272C418.583 47.4304 418.684 47.6141 418.747 47.8123C418.758 48.1377 418.84 48.4567 418.989 48.7466C419.137 49.0365 419.348 49.2902 419.605 49.4896C419.863 49.689 420.161 49.8294 420.479 49.9006C420.797 49.9718 421.127 49.9723 421.445 49.9018C423.174 49.4693 424.866 48.8994 426.504 48.1975C429.343 46.9369 431.388 44.6256 433.409 42.361C433.663 42.0189 433.833 41.6222 433.906 41.2027C433.979 40.7831 433.953 40.3523 433.83 39.9447C433.549 39.3144 432.51 38.9758 431.75 38.6256C431.334 38.5015 430.899 38.4502 430.465 38.4739L431.143 36.6996C431.47 37.2949 431.785 37.8669 432.112 38.5206L432.545 38.4506C433.161 37.4507 433.626 36.3649 433.923 35.2288C434.058 33.1181 434.058 31.001 433.923 28.8904C433.913 28.464 433.761 28.0532 433.491 27.723C432.451 26.4974 431.318 25.3884 430.278 24.1044C429.789 23.457 429.336 22.7828 428.923 22.085L432.299 25.0499C432.825 24.3145 433.211 23.8126 433.538 23.2873C433.836 22.917 434.03 22.4736 434.099 22.0032C434.099 21.6414 433.573 20.941 433.456 20.976C432.913 21.1901 432.402 21.4768 431.937 21.8282L431.435 20.6609L433.69 19.727C433.094 18.9683 432.743 18.1395 432.159 17.8943C431.575 17.6492 430.991 18.2912 430.336 18.5364C429.974 17.7776 429.974 17.7776 431.657 17.4624C431.729 17.1412 431.736 16.8088 431.679 16.4846C431.621 16.1604 431.5 15.8509 431.321 15.574C431.143 15.2971 430.912 15.0583 430.64 14.8715C430.369 14.6847 430.063 14.5536 429.741 14.4858C429.955 13.9268 429.955 13.308 429.739 12.7494C429.523 12.1908 429.107 11.7322 428.572 11.4625C427.556 10.9489 427.754 10.2952 428.362 9.4314C428.934 10.0267 429.916 10.5987 429.904 11.1357C429.904 12.4314 430.839 12.8749 431.4 13.6687C431.551 13.8788 431.797 14.0306 431.937 14.2523C432.369 14.9411 432.778 15.6531 433.339 16.587C434.052 15.2329 434.507 14.3924 433.234 13.692C433.035 13.5753 433.024 13.1318 432.883 12.8633C432.486 12.1395 432.054 11.4391 431.715 10.7154C431.423 10.1785 431.166 9.62984 430.886 9.0812L431.224 8.89443L433.491 10.587C434.285 8.67265 433.491 7.22519 432.58 5.74271C431.213 3.5832 429.951 1.35366 428.642 -0.852539L428.584 -0.525703ZM189.881 157.06C190.827 157.632 192.054 157.959 191.867 159.5C191.867 159.768 192.031 160.282 192.229 160.34C193.304 160.644 193.48 161.508 193.795 162.395C193.84 162.579 193.928 162.75 194.051 162.894C194.174 163.039 194.328 163.153 194.503 163.227C194.677 163.302 194.866 163.335 195.056 163.325C195.245 163.314 195.43 163.259 195.594 163.165C195.91 163.002 196.085 162.091 195.956 161.636C195.828 161.181 195.209 160.726 194.648 160.095L194.776 158.846H195.77C195.84 158.846 195.898 158.963 195.968 159.021C196.097 161.134 196.097 161.134 198.059 161.449C197.697 162.371 197.078 163.352 198.772 163.609C198.901 163.609 198.982 163.959 199.111 164.111C199.45 164.496 199.777 165.126 200.163 165.173C200.548 165.22 201.249 164.835 201.775 164.636L199.134 160.34C199.154 159.785 199.055 159.232 198.842 158.718C198.539 158.286 197.826 158.134 197.02 157.726C199.134 155.893 201.202 154.095 203.282 152.321C203.43 152.212 203.603 152.14 203.784 152.111C203.854 152.111 203.948 152.111 204.1 152.181V153.243C201.915 153.792 201.857 153.862 201.962 155.695C201.828 155.658 201.691 155.638 201.553 155.636C200.466 155.8 199.134 155.858 199.111 157.259C199.111 157.866 200.034 158.426 200.49 159.103C200.665 159.337 200.641 159.71 200.817 159.92C201.23 160.417 201.696 160.867 202.207 161.263C202.336 161.356 202.943 161.087 202.978 160.912C203.095 160.282 203.364 159.36 203.048 159.033C202.253 158.092 201.837 156.89 201.88 155.66C202.522 156.348 203.679 156.558 203.784 157.772C203.784 157.924 204.474 158.216 204.579 158.123C204.717 158.008 204.83 157.865 204.911 157.705C204.991 157.544 205.037 157.368 205.046 157.189C204.918 156.36 204.649 155.554 204.38 154.539L206.436 154.831L206.658 152.73C207.92 152.228 208.329 151.562 207.827 150.71C207.641 150.371 207.489 150.016 207.371 149.648C207.792 149.519 208.224 149.426 208.621 149.263C209.018 149.099 209.661 148.796 209.638 148.667C209.416 147.605 210.128 147.232 210.806 146.706C211.123 146.336 211.365 145.908 211.519 145.446C211.682 145.142 211.823 144.827 211.998 144.523C212.29 143.998 212.582 143.461 212.909 142.959C213.132 142.613 213.382 142.285 213.657 141.979C213.914 141.675 214.229 141.43 214.475 141.115C216.145 139.084 217.723 136.983 219.498 135.033C220.667 133.761 220.749 133.656 219.195 132.885C218.83 132.671 218.437 132.51 218.026 132.407C214.194 131.73 210.374 130.948 206.518 130.457C202.931 130.002 199.298 129.792 195.688 129.582C192.65 129.407 189.612 129.36 186.575 129.302C181.191 129.134 175.802 129.411 170.463 130.131C168.781 130.387 167.028 130.259 165.346 130.516C161.841 131.053 158.336 131.683 154.831 132.372C152.12 132.897 149.445 133.539 146.758 134.204C145.565 134.612 144.342 134.928 143.101 135.15C142.414 135.162 141.74 135.334 141.132 135.652C140.523 135.97 139.997 136.426 139.596 136.983C140.764 138.372 141.933 139.726 143.007 141.232C144.409 143.274 146.933 144.337 147.833 146.823C148.082 147.408 148.425 147.948 148.849 148.422C150.239 150.126 151.606 151.842 153.078 153.477C153.6 153.996 154.249 154.37 154.959 154.562C155.964 154.842 157.039 154.889 158.067 155.076C159.598 155.356 161.128 155.683 162.659 155.951C162.792 155.967 162.927 155.955 163.055 155.917C163.184 155.879 163.303 155.815 163.407 155.73C164.038 155.006 164.446 155.496 165.007 155.87C165.872 156.442 166.83 156.885 167.8 157.41L168.501 155.496C168.933 156.138 169.108 156.663 169.494 156.92C170.265 157.329 171.305 157.971 171.924 157.726C172.788 157.375 172.298 156.407 171.807 155.741C171.725 155.624 171.807 155.403 171.807 155.076C172.065 155.236 172.311 155.416 172.543 155.613C173.256 156.407 173.91 157.259 174.658 158.006C176.2 159.523 176.878 159.36 177.438 157.445C177.438 157.375 177.578 157.329 177.836 157.142C178.315 159.138 180.172 159.243 181.831 159.687L180.99 158.519C182.299 157.445 180.114 156.733 180.429 155.66L182.672 157.621C182.715 158.271 182.96 158.891 183.374 159.395C184.011 160.049 184.744 160.604 185.547 161.041C185.752 161.149 185.98 161.206 186.212 161.206C186.445 161.206 186.673 161.149 186.879 161.041C187.124 160.737 186.96 160.107 186.972 159.628L185.675 159.722H185.29C185.582 159.126 185.815 158.554 186.096 158.052C186.213 157.819 186.435 157.434 186.575 157.445C187.895 157.551 188.421 156.652 188.981 155.718C189.073 155.627 189.187 155.561 189.312 155.526C189.437 155.491 189.568 155.489 189.694 155.519C189.869 155.648 189.916 156.01 189.94 156.267C189.963 156.542 189.963 156.82 189.94 157.095C189.43 157.016 188.909 157.137 188.486 157.433C188.064 157.729 187.772 158.177 187.673 158.683C187.451 159.955 188.432 160.41 189.402 160.761C189.664 161.331 190.102 161.801 190.652 162.103C190.944 162.22 191.47 161.776 191.891 161.589L190.477 159.255C190.337 158.695 190.115 157.842 189.904 157.014L189.881 157.06ZM308.958 114.535C309.113 114.846 309.158 115.2 309.086 115.539C308.666 116.555 308.935 118.177 307.042 117.967C306.96 117.967 306.878 118.189 306.762 118.259C305.593 119.029 305.885 120.232 305.92 121.154C305.116 121.243 304.329 121.447 303.584 121.761C302.651 122.412 301.793 123.164 301.025 124.002C299.67 125.356 299.857 125.963 301.633 126.827C301.948 126.979 302.298 127.061 302.801 127.247C302.801 125.601 304.039 125.263 305.138 124.504C306.668 123.419 309.227 123.173 309.098 120.524C310.001 120.463 310.855 120.096 311.518 119.482C312.182 118.867 312.614 118.045 312.743 117.15H314.589C312.475 118.983 313.339 120.652 314.811 122.216L314.356 122.298L312.358 119.963C311.505 120.699 310.664 121.411 309.846 122.146C308.21 123.605 306.563 125.041 304.974 126.535C304.684 126.853 304.533 127.273 304.553 127.703C304.553 127.983 305.056 128.321 305.395 128.426C306.913 128.905 307.988 128.286 309.168 127.259C310.348 126.232 310.594 125.812 309.168 124.504C309.998 124.727 310.857 124.817 311.715 124.773C312.447 124.434 313.118 123.976 313.701 123.419L314.659 125.438L314.321 125.671L312.837 124.936C312.323 125.555 311.669 126.22 311.166 126.967C310.984 127.407 310.866 127.871 310.816 128.345C311.376 128.473 312.077 128.893 312.475 128.695C313.28 128.185 314.024 127.586 314.694 126.909C314.791 126.966 314.871 127.046 314.928 127.142C315.921 128.917 316.47 128.998 317.978 127.656C318.34 127.453 318.736 127.315 319.146 127.247C319.298 127.714 319.707 128.298 319.543 128.59C319.379 128.882 318.468 129.559 318.293 129.442C317.125 128.636 316.447 129.535 315.886 130.247C315.699 130.469 315.564 130.73 315.491 131.011C315.418 131.292 315.41 131.585 315.466 131.87C315.623 132.145 315.84 132.381 316.101 132.561C316.362 132.741 316.66 132.86 316.973 132.909C317.417 132.909 317.954 132.348 318.386 131.952C318.591 131.668 318.756 131.358 318.877 131.029L319.111 131.38C319.835 131.199 320.528 130.911 321.167 130.527C321.639 130.046 322.033 129.495 322.335 128.893C322.849 128.912 323.364 128.865 323.866 128.753C325.654 128.099 326.541 126.045 328.539 125.671C328.656 125.671 328.679 125.321 328.808 125.205C329.638 124.434 330.42 123.15 331.332 123.033C333.002 122.835 333.668 121.714 334.65 120.769C334.895 120.535 335.117 120.209 335.421 120.115C336.21 119.914 336.94 119.527 337.55 118.987C338.159 118.447 338.631 117.769 338.926 117.01C339.469 116.977 340 116.831 340.485 116.584C340.97 116.336 341.398 115.991 341.744 115.57C342.089 115.15 342.344 114.662 342.492 114.139C342.641 113.615 342.679 113.067 342.606 112.528L343.774 114.185C344.207 113.835 344.651 113.508 345.071 113.146C345.492 112.784 345.515 112.668 345.772 112.469C346.208 112.152 346.521 111.694 346.657 111.173C346.793 110.651 346.745 110.099 346.52 109.609C346.455 109.168 346.455 108.72 346.52 108.279H346.894C346.811 108.765 346.811 109.263 346.894 109.749C347.097 110.118 347.401 110.422 347.77 110.625C348.724 110.036 349.553 109.267 350.212 108.36C350.562 107.683 350.609 107.111 351.52 107.193C351.651 107.202 351.781 107.181 351.903 107.132C352.024 107.084 352.133 107.009 352.221 106.913C352.864 105.956 353.39 104.964 354.091 103.913C355.423 104.497 356.93 103.178 357.479 100.411C358.647 101.041 359.243 100.504 359.816 99.5239C360.199 98.8596 360.641 98.2308 361.136 97.6445C361.356 97.4209 361.623 97.2494 361.919 97.1426C362.351 96.9441 362.958 96.8974 363.215 96.5706C363.844 95.6963 364.417 94.7841 364.933 93.8391C366.101 94.1893 366.767 93.3605 367.083 92.3567C367.288 91.3386 367.386 90.3018 367.375 89.2633L368.438 91.306L371.814 87.0804C372.924 87.1738 374.245 85.668 374.583 83.5085C376.184 84.2906 376.441 82.6563 377.294 82.0143C378.638 81.0105 377.014 79.9599 377.294 78.8743C378.229 80.1583 379.187 80.4501 379.701 79.5163C380.409 78.1859 381.427 77.045 382.668 76.1895C383.556 75.5825 383.837 74.0883 384.409 72.8977L385.297 73.3763L387.458 70.458C387.902 69.8394 387.459 68.2868 389.141 68.9639C389.234 68.9639 389.538 68.7071 389.643 68.5203C390.239 67.5047 390.812 66.4658 391.372 65.4503C391.524 65.1701 391.688 64.7499 391.922 64.6915C392.782 64.4778 393.547 63.9824 394.093 63.2843C394.639 62.5862 394.936 61.7256 394.936 60.8394C395.672 60.3725 396.104 60.1274 396.56 59.8005C397.962 58.7033 397.728 56.2986 399.854 55.7617C399.854 55.7617 399.854 55.68 399.854 55.6449L401.338 52.4232C401.876 52.1494 402.368 51.7951 402.799 51.3726C403.476 50.5321 403.862 49.4349 404.598 48.6645C405.334 47.894 406.502 47.2053 406.643 45.8396C406.643 45.6178 407.04 45.3843 407.297 45.2559C407.667 45.0712 407.992 44.8061 408.246 44.4801C408.501 44.1541 408.68 43.7753 408.769 43.3715C408.859 42.9677 408.857 42.549 408.764 42.146C408.671 41.743 408.489 41.3658 408.232 41.042C408.091 40.8669 407.238 40.9603 407.063 41.2054C405.895 42.5478 404.82 43.9719 403.488 45.6411C403.126 43.3065 405.825 42.9914 405.743 41.2287C405.743 40.9953 406.105 40.7151 406.339 40.4933C406.572 40.2716 406.619 40.4933 406.748 40.4233C407.601 40.0147 407.706 39.256 406.958 38.6723C406.21 38.0887 405.79 37.9019 405.135 38.8007C404.481 39.6996 402.647 40.0965 402.483 42.1859L400.777 39.9797C401.689 39.5595 402.577 39.1276 403.488 38.7424C403.7 38.6764 403.897 38.5685 404.067 38.4251C404.236 38.2817 404.375 38.1056 404.476 37.9075C404.576 37.7093 404.635 37.4931 404.65 37.2715C404.665 37.05 404.636 36.8277 404.563 36.6179C404.411 36.3594 404.194 36.145 403.934 35.9956C403.674 35.8461 403.379 35.767 403.079 35.7658C402.483 35.8708 401.993 36.5128 401.233 37.0965C400.369 36.8397 399.738 35.9292 400.462 35.4156C401.467 34.7385 401.151 34.0732 400.777 33.3144C400.404 32.5557 399.726 31.7852 398.604 32.1471C397.705 34.4817 397.716 34.6451 399.189 36.1743H396.852L396.63 35.6957C395.964 36.6529 395.298 37.5984 394.527 38.719C393.721 38.5439 393.359 39.1626 392.938 40.1782C392.681 40.8435 391.886 41.3455 391.291 41.8591C391.197 41.9525 390.847 41.8591 390.742 41.789C390.693 41.7035 390.668 41.607 390.668 41.5089C390.668 41.4108 390.693 41.3143 390.742 41.2287C391.088 40.746 391.519 40.3306 392.015 40.0031C392.547 39.6836 392.976 39.2174 393.25 38.6603C393.523 38.1033 393.63 37.4792 393.557 36.863H392.389L394.235 35.4973C394.235 35.4973 394.41 35.614 394.48 35.5907C395.134 35.4272 396.022 35.4389 396.385 35.007C396.836 34.3396 397.091 33.5591 397.121 32.7541C397.121 32.509 396.478 32.1938 396.408 32.1354C396.638 31.4319 396.738 30.692 396.7 29.9526C396.642 29.6724 395.672 29.5907 394.983 29.3806C394.831 27.9682 394.831 27.9682 393.02 28.2133C392.838 28.213 392.658 28.1894 392.482 28.1433C391.314 28.0032 388.872 30.4779 388.977 31.6452C388.977 31.8086 389.106 32.0654 389.223 32.1121C389.992 32.4525 390.814 32.6616 391.653 32.7308C391.853 32.7363 392.051 32.6968 392.233 32.6153C392.416 32.5338 392.578 32.4123 392.707 32.2598C392.836 32.1073 392.929 31.9278 392.979 31.7345C393.029 31.5412 393.035 31.3391 392.996 31.1432C392.996 30.9565 393.616 30.688 393.943 30.4545C394.227 30.9546 394.41 31.5061 394.48 32.0771C394.43 32.3274 394.322 32.5629 394.166 32.7652C394.01 32.9676 393.81 33.1315 393.581 33.2444C392.836 33.4285 392.171 33.8468 391.683 34.4374C391.195 35.028 390.91 35.7597 390.87 36.5245C390.87 36.8747 390.356 37.4817 390.181 37.4467C388.382 37.0731 387.844 38.3805 387.085 39.5595L385.589 37.2949L385.227 35.7424L384.339 37.3066C383.463 37.0731 382.68 39.186 381.371 37.6218C381.979 37.3533 381.944 36.4545 383.019 36.5595C384.094 36.6646 385.192 34.7735 384.947 33.5479C384.855 32.9058 384.804 32.2586 384.795 31.6102C385.39 32.1471 385.694 32.4273 385.963 32.7775C386.255 32.6491 386.594 32.614 386.746 32.4273C387.645 31.26 388.522 30.0927 389.375 28.9254C389.401 28.8434 389.405 28.756 389.386 28.672C389.368 28.588 389.327 28.5103 389.269 28.4468C389.189 28.3788 389.096 28.3282 388.996 28.298C388.895 28.2679 388.789 28.2589 388.685 28.2717C388.318 28.4432 387.973 28.6588 387.657 28.9137C387.596 28.5269 387.596 28.1331 387.657 27.7464C387.657 27.6297 388.183 27.7464 388.463 27.7464C389.209 27.7942 389.957 27.7589 390.695 27.6413C391.489 27.4312 391.863 26.0538 391.349 25.6102C390.835 25.1666 389.994 24.6647 389.351 24.1394C388.37 23.3223 387.575 23.2406 387.014 24.548L384.526 23.8126C384.736 23.3807 385.11 22.9721 385.122 22.5519C385.183 21.8585 385.058 21.1614 384.76 20.5324C384.573 20.2173 383.743 20.0889 383.276 20.2056C382.809 20.3223 382.832 20.941 382.575 21.3145C382.38 21.5724 382.169 21.8179 381.944 22.0499C381.57 20.4741 381.547 18.9332 380.846 17.8126C380.145 16.692 378.754 15.478 377.06 16.727C376.044 13.5637 373.894 12.0578 370.892 12.7699C371.277 10.5987 369.875 9.58313 368.321 8.61427C366.767 7.64541 365.108 7.1785 363.823 5.84777C362.538 4.51704 360.318 3.87502 358.577 2.60266C355.541 0.376495 352.283 -1.53233 348.857 -3.09378C343.307 -5.6852 337.594 -7.93809 331.927 -10.261C330.07 -11.0198 329.205 -10.5645 328.236 -8.81356C326.752 -6.11709 325.268 -3.42062 323.691 -0.782509C320.676 4.30694 317.557 9.34969 314.554 14.3924C311.867 18.9449 309.308 23.5558 306.656 28.1199C304.32 32.1121 301.983 36.0887 299.646 40.0498C296.928 44.6178 294.202 49.1742 291.468 53.7189C289.599 56.8006 287.683 59.8706 285.848 62.9873C283.079 67.6565 280.38 72.4308 277.611 77.1233C274.842 81.8159 272.132 86.1699 269.433 90.7341C266.045 96.5122 262.762 102.337 259.409 108.139C258.719 109.306 258.135 110.683 256.523 111.045C255.908 111.231 255.331 111.523 254.817 111.909C251.312 114.244 247.69 116.473 244.22 118.913C241.802 120.594 239.547 122.415 237.21 124.317C233.705 127.166 230.107 129.932 226.766 132.979C223.786 135.71 221.146 138.815 218.283 141.675C215.107 144.988 212.653 148.923 211.075 153.232C209.404 157.445 208.738 161.893 207.722 166.27C207.453 167.438 207.722 168.243 208.89 168.605C210.058 168.967 210.993 169.317 212.056 169.667V170.041L212.932 169.352C214.101 169.609 214.101 171.523 215.912 170.963C215.585 170.333 215.304 169.796 214.977 169.165L216.145 168.582C216.12 168.906 216.144 169.233 216.215 169.55C216.42 169.902 216.65 170.238 216.905 170.554C217.267 170.239 217.968 169.772 217.909 169.62C217.442 168.453 218.283 166.807 216.402 166.189L217.769 165.278C217.978 165.908 218.252 166.514 218.587 167.087C218.704 167.251 219.557 167.146 219.58 167.087C219.814 166.165 219.942 165.22 220.106 164.286C219.884 164.111 219.977 163.982 220.106 163.959C221.999 163.597 222.291 163.06 221.718 161.216C221.644 160.611 221.644 160 221.718 159.395C222.957 160.842 223.774 160.107 224.312 159.29C225.036 158.181 226.38 157.434 226.298 155.788C226.298 155.414 227.023 154.924 227.467 154.621C227.716 154.522 227.943 154.373 228.132 154.183C228.321 153.993 228.469 153.766 228.565 153.515C228.662 153.265 228.706 152.998 228.693 152.73C228.681 152.462 228.614 152.2 228.495 151.959C228.437 151.341 228.484 150.717 228.635 150.115C230.457 152.158 230.446 149.905 230.972 149.414C232.14 148.422 230.411 148.072 230.271 147.021C230.728 146.795 231.21 146.622 231.708 146.508C233.133 146.309 233.822 145.341 233.25 144.045C232.899 143.251 233.25 142.656 233.822 142.667C235.423 142.667 235.353 141.593 235.61 140.555C235.797 139.749 235.692 138.839 236.93 138.407C237.904 137.915 238.716 137.153 239.267 136.212C240.435 134.531 241.498 132.71 242.596 130.971C242.747 131.438 242.722 131.945 242.526 132.395C241.44 134.73 240.377 137.064 239.173 139.329C236.451 144.453 233.74 149.566 230.866 154.597C228.6 158.554 226.076 162.371 223.693 166.27C222.209 168.698 220.807 171.173 219.276 173.566C217.933 175.655 216.426 177.628 215.035 179.694C214.077 181.142 213.283 182.706 212.243 184.095C209.988 187.072 207.57 189.932 205.233 192.92C203.375 195.371 201.728 197.939 199.824 200.402C197.675 202.944 195.821 205.72 194.297 208.678C193.947 209.727 193.693 210.805 193.538 211.9L194.052 212.274C194.625 211.947 195.466 211.76 195.711 211.281C196.425 209.456 197.543 207.816 198.982 206.484C199.864 205.65 200.9 204.996 202.032 204.558C203.304 204.364 204.596 204.336 205.876 204.476C206.39 205.305 206.658 206.25 207.219 206.507C207.78 206.764 208.796 206.507 209.731 206.437C209.334 207.313 208.458 208.387 209.918 208.55C211.048 208.497 212.152 208.185 213.143 207.639C213.31 207.527 213.445 207.373 213.535 207.193C213.625 207.013 213.667 206.813 213.657 206.612C213.481 205.573 213.972 205.445 214.825 205.258C215.495 205.02 216.075 204.579 216.484 203.998C216.624 203.834 216.285 203.239 216.134 202.83C215.982 202.422 215.888 202.27 215.76 202.001C216.087 201.896 216.507 201.628 216.741 201.733C216.916 201.852 217.117 201.927 217.327 201.953C217.538 201.979 217.751 201.954 217.95 201.881C218.149 201.808 218.327 201.689 218.47 201.533C218.614 201.378 218.718 201.19 218.774 200.986C218.817 200.913 218.876 200.85 218.947 200.804C219.018 200.757 219.099 200.728 219.183 200.717C220.643 200.811 220.351 199.83 220.234 199.072C221.718 197.682 223.623 196.959 224.709 195.091C225.34 194.005 226.672 193.34 227.537 192.348C227.997 191.621 228.359 190.836 228.611 190.013C229.143 189.929 229.657 189.755 230.13 189.5C230.593 189.072 230.987 188.576 231.299 188.029L229.675 187.27C229.675 187.27 229.675 187.142 229.593 186.978C230.552 186.961 231.507 186.848 232.444 186.64C233.495 186.325 233.518 185.379 232.444 184.13C234.663 184.13 236.229 183.406 236.813 181.258C236.883 181.025 237.374 180.932 237.584 180.71C238.145 180.138 238.94 179.613 239.126 178.924C239.315 178.132 239.811 177.448 240.505 177.021C241.206 176.531 242.164 175.667 242.117 175.025C242.117 174.056 242.55 173.858 243.064 173.438C244.033 172.69 245.003 171.943 245.996 171.208C246.44 170.869 246.919 170.554 247.48 170.169C247.401 169.85 247.402 169.517 247.484 169.198C247.565 168.88 247.723 168.586 247.945 168.344C248.167 168.101 248.446 167.917 248.756 167.808C249.066 167.699 249.398 167.668 249.723 167.718C247.772 175.235 244.349 182.122 241.428 189.196C238.507 196.27 233.869 202.573 228.997 208.737C230.306 209.064 231.217 209.355 232.163 209.507C233.405 209.734 234.663 209.851 235.925 209.857C236.813 209.857 237.841 208.994 238.145 210.628C238.145 210.745 238.426 210.896 238.589 210.92C240.926 211.34 243.262 212.402 245.494 210.243C245.763 211.176 245.973 211.923 246.195 212.671H246.849C247.036 211.807 247.211 210.943 247.328 210.429C247.978 210.368 248.611 210.19 249.198 209.904C249.536 209.647 249.56 208.97 249.712 208.48L247.06 207.908L245.751 205.573C244.664 205.877 243.508 206.997 243.882 204.803C244.033 203.962 242.106 202.83 241.708 203.391C240.844 204.616 239.944 204.056 238.998 203.799C240.692 202.877 240.715 202.632 239.465 201.161C239.278 200.951 239.465 200.437 239.465 199.784C239.933 200.169 240.096 200.239 240.143 200.356C240.54 201.523 240.68 202.947 242.55 202.468C242.678 202.468 242.889 202.714 243.052 202.865C245.023 204.809 247.424 206.26 250.062 207.103C250.576 207.243 251.499 207.161 251.733 206.822C252.431 205.699 253.052 204.529 253.591 203.32L253.263 202.247C254.303 201.803 255.413 201.675 255.74 201.079C256.067 200.484 255.74 199.398 255.74 198.675C256.43 198.289 257.633 197.998 257.925 197.321C258.217 196.643 257.586 195.581 257.399 194.881C258.24 194.636 259.444 194.636 259.9 194.064C260.671 193.06 259.35 192.535 258.731 191.916C259.727 191.661 260.697 191.313 261.629 190.877C262.079 190.674 262.435 190.309 262.626 189.854C262.816 189.399 262.828 188.888 262.657 188.426L264.666 186.021C264.549 185.706 264.386 185.297 264.211 184.854C266.956 183.535 267.202 180.418 269.223 178.329C269.224 178.893 269.169 179.456 269.059 180.009C268.183 182.764 267.412 185.554 266.325 188.181C265.208 190.902 263.924 193.553 262.482 196.118C261.021 198.756 259.385 201.301 257.703 203.799C255.637 207.025 253.019 209.862 249.969 212.18C249.385 212.601 248.8 213.488 249.7 213.896C251.277 214.597 252.843 215.682 254.771 215.169C254.954 215.162 255.136 215.199 255.303 215.276C255.469 215.353 255.615 215.468 255.729 215.612C256.056 216.359 256.313 217.025 257.306 217.036C258.089 217.036 258.86 217.258 259.642 217.235C259.876 217.235 260.25 216.791 260.285 216.523C260.32 216.254 260.156 215.495 259.946 215.437C259.31 215.359 258.666 215.359 258.03 215.437C257.937 214.818 257.808 214.013 257.691 213.231L256.172 212.554C256.722 211.585 257.13 211.667 257.773 212.39C259.455 214.316 261.278 216.079 264.176 215.671C266.512 215.344 267.365 215.32 267.681 212.916C268.237 212.346 268.885 211.872 269.597 211.515C270.952 211.118 270.882 210.476 270.426 209.799L267.435 210.068L267.365 209.531C268.344 209.5 269.316 209.359 270.263 209.11C271.433 208.704 272.512 208.074 273.441 207.254C273.873 206.857 273.686 205.784 273.791 205.025C273.791 204.896 273.908 204.791 273.966 204.675C274.655 204.612 275.316 204.371 275.882 203.974C275.45 202.725 276.583 202.317 277.051 201.535C277.238 201.054 277.238 200.521 277.051 200.04C276.782 199.282 276.899 199.2 277.717 198.955C278.861 198.572 279.898 197.924 280.743 197.064C281.175 196.632 281.046 195.616 281.187 194.729C283.068 194.239 283.769 193.468 283.371 192.079C285.299 190.539 285.299 190.539 283.862 188.811C283.801 188.747 283.753 188.672 283.722 188.589C283.502 187.716 283.111 186.895 282.571 186.174C282.032 185.453 281.355 184.845 280.579 184.387C280.392 184.293 280.345 183.932 280.228 183.686C281.397 183.838 282.262 185.017 283.523 184.258C283.675 184.62 284.037 185.146 283.92 185.286C283.278 186.103 283.593 186.453 284.364 186.908C284.645 187.06 284.797 187.492 284.949 187.83C285.101 188.169 285.054 188.647 285.276 188.834C286.444 189.791 286.164 190.935 285.825 192.126C285.136 194.461 284.4 196.877 283.827 199.282C282.867 203.325 281.557 207.278 279.913 211.095C279.154 212.881 277.927 214.48 278.102 216.593C278.102 216.885 277.483 217.188 277.191 217.527C276.854 217.913 276.549 218.327 276.28 218.764C275.999 219.254 275.964 219.99 275.567 220.27C273.604 221.682 273.382 222.394 274.398 224.811C274.651 225.521 275.17 226.106 275.846 226.441C276.521 226.776 277.301 226.836 278.02 226.608C279.002 228.254 279.469 228.383 280.357 227.472L279.679 225.99L280.275 225.744C280.389 226.179 280.546 226.601 280.743 227.005C281.046 227.53 281.596 228.464 281.806 228.406C282.6 228.184 283.278 227.647 282.974 226.562C282.729 225.768 282.6 224.939 282.413 224.134L282.787 223.982C282.939 224.239 283.091 224.495 283.255 224.752C283.418 225.009 283.699 225.768 284.072 225.919C284.297 225.94 284.523 225.902 284.729 225.808C284.934 225.713 285.11 225.567 285.241 225.383C285.409 224.859 285.409 224.296 285.241 223.772C284.925 222.674 284.493 221.624 283.979 220.2C285.147 220.76 285.474 221.25 285.323 222.149C285.339 222.355 285.405 222.553 285.515 222.728C285.625 222.903 285.775 223.049 285.953 223.153C286.281 223.316 286.97 223.328 287.122 223.153C287.315 222.746 287.376 222.289 287.297 221.846C287.297 221.437 287.028 221.052 287.005 220.678C287.005 219.324 286.316 218.787 284.972 218.962C284.353 219.044 283.57 219.114 283.699 218.239C286.035 217.947 288.372 217.737 290.709 217.34C291.079 217.249 291.425 217.078 291.722 216.84C292.02 216.602 292.262 216.302 292.432 215.961C292.602 215.62 292.696 215.246 292.707 214.866C292.718 214.485 292.646 214.106 292.496 213.756C292.964 213.107 293.389 212.429 293.77 211.725C294.003 211.136 294.183 210.526 294.307 209.904C294.599 208.947 294.926 207.99 295.172 207.021C295.545 205.62 295.838 204.196 296.2 202.784C296.562 201.371 296.994 199.772 297.368 198.266C297.368 198.114 297.239 197.928 297.181 197.752C296.638 196.006 295.61 194.45 294.216 193.266C292.821 192.082 291.119 191.318 289.307 191.064C289.809 190.737 290.253 190.235 290.475 190.317C291.643 190.714 292.882 191.262 294.143 191.776C294.249 191.239 294.377 190.503 294.506 189.756H294.95C294.95 190.153 294.95 190.55 294.95 190.924C294.896 191.316 294.932 191.715 295.055 192.091C295.417 192.791 295.908 193.433 296.48 194.309C296.994 194.367 297.894 194.496 298.233 193.433C298.642 192.138 297.251 192.453 296.725 191.963C298.338 190.9 298.338 190.9 297.193 189.861C297.356 188.881 297.999 188.449 298.875 188.694C299.226 188.853 299.625 188.868 299.986 188.734C300.347 188.601 300.64 188.331 300.803 187.982C301.294 187.247 301.539 186.663 300.803 185.881C300.441 185.472 300.102 184.784 301.072 184.48C302.894 183.92 302.906 183.897 302.24 182.076C303.724 180.908 303.876 180.29 303.257 178.375C303.165 178.205 303.115 178.015 303.111 177.821C303.107 177.628 303.149 177.436 303.233 177.262C303.317 177.088 303.442 176.936 303.596 176.819C303.751 176.702 303.93 176.623 304.121 176.589C304.337 176.472 304.522 176.305 304.66 176.102C304.798 175.899 304.886 175.666 304.915 175.422C304.915 175.142 304.378 174.757 304.016 174.546C303.654 174.336 303.432 174.546 302.848 174.546C303.245 174.313 303.467 174.08 303.595 174.126C304.986 174.605 305.476 173.869 305.535 172.679C305.593 171.488 305.535 170.146 305.535 168.885C305.535 168.512 305.359 168.15 305.371 167.788C305.413 167.349 305.495 166.916 305.617 166.492L306.516 167.076C307.334 165.99 308.327 164.799 307.381 163.154C307.287 162.979 307.474 162.617 307.591 162.371C307.778 162.061 307.867 161.702 307.849 161.34C307.83 160.978 307.704 160.63 307.486 160.34C307.042 159.675 307.1 158.858 308.234 158.659C308.549 158.601 309.075 158.356 309.098 158.158C309.453 156.356 309.579 154.516 309.472 152.683C309.215 150.897 308.923 150.909 310.535 150.348C310.734 148.177 310.991 146.018 311.108 143.858C311.248 141.127 311.295 138.395 309.273 136.166C308.736 135.559 308.257 134.905 307.766 134.263C306.881 132.832 305.843 131.501 304.67 130.294C302.333 128.356 299.74 126.71 297.228 124.971C296.632 124.563 295.919 124.306 295.312 123.921C293.886 122.987 292.484 122.018 291.047 121.049C291.386 120.162 291.678 120.103 292.344 120.78C292.945 121.452 293.619 122.055 294.354 122.578C295.978 123.594 296.574 123.29 297.006 121.411L298.688 121.504C298.456 121.9 298.16 122.255 297.812 122.555C297.578 122.847 297.251 123.454 297.356 123.57C297.688 124.018 298.168 124.333 298.712 124.457C299.109 124.457 299.6 124.049 299.985 123.745C301.352 122.683 302.696 121.598 304.039 120.512C304.355 120.244 304.787 119.975 304.892 119.613C305.042 118.945 305.132 118.266 305.161 117.582C304.459 117.606 303.76 117.684 303.07 117.816C302.777 117.886 302.555 118.329 302.369 118.633C302.053 119.288 301.601 119.869 301.043 120.336C300.485 120.803 299.833 121.145 299.132 121.341C299.272 119.975 299.448 119.765 300.943 119.345C300.943 118.714 300.943 118.072 301.025 117.652C301.882 117.229 302.67 116.678 303.362 116.018C303.783 115.214 304.067 114.347 304.203 113.45C304.086 113.45 304.261 113.391 304.355 113.45L308.958 114.535ZM295.008 230.694C294.39 230.529 293.808 230.252 293.291 229.877C292.706 229.27 292.414 228.277 291.293 228.639C290.772 228.825 290.32 229.163 289.993 229.608C289.666 230.053 289.48 230.586 289.458 231.137C288.707 231.714 287.992 232.337 287.32 233.005C287.204 233.133 287.531 233.974 287.799 234.079C288.047 234.147 288.306 234.157 288.558 234.109C288.81 234.061 289.047 233.955 289.252 233.801C289.456 233.646 289.622 233.446 289.737 233.217C289.852 232.988 289.913 232.736 289.914 232.48L292.905 230.881L291.41 234.149C290.603 233.775 290.008 234.301 289.902 235.316C289.893 235.553 289.941 235.788 290.043 236.001C290.145 236.215 290.297 236.4 290.487 236.542C290.644 236.616 290.817 236.654 290.991 236.653C291.165 236.652 291.337 236.612 291.494 236.536C291.651 236.46 291.789 236.349 291.898 236.213C292.006 236.077 292.083 235.918 292.122 235.748C292.309 235.083 292.543 234.324 293.372 234.744C293.828 234.978 294.015 235.725 294.365 236.308C292.134 237.102 291.935 237.417 292.391 239.087C294.517 239.203 294.95 238.818 294.658 236.974L295.931 237.277L296.574 239.285C296.34 239.215 296.048 239.052 295.966 239.122C295.349 239.648 294.782 240.231 294.272 240.861C294.143 241.024 294.4 241.783 294.482 241.783C295.1 241.799 295.716 241.712 296.305 241.526C296.538 241.433 296.539 240.826 296.772 240.581C297.246 240.157 297.75 239.767 298.279 239.414C298.279 240.476 298.361 241.083 298.396 241.678C297.975 241.53 297.513 241.545 297.103 241.72C296.692 241.895 296.361 242.217 296.176 242.624C296.078 242.85 296.028 243.095 296.028 243.341C296.028 243.588 296.078 243.833 296.176 244.059C296.27 244.27 296.971 244.398 297.345 244.281C298.84 243.768 298.969 243.394 298.349 241.643C299.015 242.11 299.845 242.624 300.429 241.9C300.932 241.079 301.325 240.196 301.597 239.273L302.766 240.044C302.182 241.713 299.05 242.18 300.558 244.888C299.494 244.094 299.027 244.538 298.466 245.297C297.906 246.055 297.777 246.733 298.466 247.351C299.156 247.97 299.705 247.351 300.23 246.908C301.107 246.137 302.006 245.413 302.894 244.666C302.818 244.969 302.691 245.257 302.52 245.519C301.703 246.441 300.803 247.281 300.044 248.25C299.798 248.565 299.915 249.149 299.857 249.616C300.283 249.636 300.71 249.609 301.13 249.534C301.41 249.452 301.621 249.125 301.889 248.939C302.544 248.46 303.221 247.993 303.887 247.526C303.607 248.845 302.988 249.966 304.904 250.293C305.067 250.293 305.126 250.923 305.254 251.238C305.383 251.553 305.628 252.534 305.85 252.546C306.453 252.498 307.038 252.323 307.568 252.032C307.974 251.807 308.365 251.553 308.736 251.273C307.486 253.97 304.507 254.495 303.572 257.028C303.387 256.919 303.218 256.786 303.07 256.631C301.294 254.297 299.635 251.834 297.742 249.627C295.405 246.803 292.882 244.036 290.253 241.456C288.336 239.612 286.291 237.908 284.131 236.355C280.941 234.021 277.623 231.756 274.387 229.421C269.988 226.444 265.327 223.873 260.46 221.741C257.166 220.176 253.707 218.962 250.272 217.713C246.838 216.464 243.075 215.087 239.395 214.048C235.715 213.009 232.093 212.262 228.424 211.492C226.088 211.013 223.833 210.651 221.508 210.324C219.699 210.134 217.882 210.036 216.064 210.033C215.188 210.025 214.317 210.155 213.481 210.418C213.166 210.511 213.014 211.118 212.792 211.48C213.104 211.705 213.442 211.893 213.797 212.04C214.393 212.239 214.965 212.344 215.62 212.484L215.526 212.939C214.159 212.799 212.804 212.636 211.425 212.554C211.005 212.554 210.257 212.636 210.257 212.822C210.14 213.266 210.257 214.06 210.479 214.223C211.119 214.531 211.814 214.709 212.523 214.748C213.692 214.9 214.942 214.959 216.145 215.064V215.589C215.85 215.739 215.529 215.834 215.199 215.869C213.645 215.706 212.103 215.472 210.526 215.297C209.653 215.152 208.77 215.082 207.885 215.087C207.453 215.087 206.717 215.484 206.717 215.811C206.654 215.963 206.631 216.128 206.651 216.292C206.671 216.455 206.733 216.61 206.83 216.743C206.928 216.875 207.058 216.981 207.208 217.048C207.358 217.116 207.523 217.144 207.687 217.13C207.909 217.13 208.119 217.445 208.539 217.772C208.214 217.819 207.886 217.838 207.558 217.83C204.985 217.203 202.271 217.539 199.929 218.776C199.672 218.927 199.134 218.542 198.76 218.437C198.387 218.332 197.592 217.958 197.113 218.145C196.447 218.449 196.178 218.46 195.781 217.83C195.428 217.411 195.005 217.056 194.531 216.78C193.772 216.173 192.451 215.612 192.358 214.97C192.159 213.628 192.124 212.566 190.792 212.636C191.061 211.97 191.704 211.176 191.528 210.639C191.406 210.314 191.372 209.961 191.432 209.619C191.492 209.276 191.642 208.955 191.867 208.69C192.545 207.674 192.3 206.472 191.47 206.355C189.706 206.204 187.965 206.099 186.154 206.099C184.343 206.099 182.264 206.262 180.312 206.32C179.93 206.247 179.558 206.129 179.202 205.97C179.623 205.737 179.74 205.632 179.857 205.62C183.549 205.317 187.241 205.106 190.921 204.698C192.276 204.546 193.877 204.966 194.952 203.741C195.699 202.889 196.284 201.908 196.961 200.998C198.515 198.931 200.244 196.959 201.635 194.764C202.347 193.597 204.275 192.698 203.235 191.087C203.832 190.714 204.406 190.305 204.953 189.861C205.344 189.449 205.7 189.004 206.016 188.531C206.285 188.169 206.53 187.807 206.787 187.434C207.094 186.859 207.488 186.335 207.955 185.881C208.504 185.461 208.82 185.157 208.212 184.609C207.605 184.06 206.904 183.511 206.238 182.963C206.761 182.914 207.29 182.97 207.792 183.126C208.458 183.196 209.392 183.371 209.755 183.021C210.35 182.461 210.257 181.609 209.299 181.165C209.182 181.165 209.124 180.932 208.925 180.663C210.935 181.504 211.414 181.212 211.671 179.379C211.671 178.924 212.231 178.539 212.5 178.107C212.769 177.675 213.306 177.161 213.236 176.776C213.166 176.391 212.582 175.889 212.15 175.609C211.727 175.34 211.281 175.11 210.818 174.92C208.691 173.834 206.623 172.585 204.427 171.71C202.23 170.834 200.069 170.321 197.919 169.55C195.77 168.78 193.363 167.683 191.038 166.912C188.713 166.142 186.107 165.477 183.619 164.811C181.265 164.09 178.874 163.494 176.457 163.025C172.952 162.465 169.283 162.22 165.697 161.858C162.904 161.531 160.135 161.134 157.343 160.842C157.096 160.831 156.849 160.871 156.618 160.959C156.386 161.048 156.176 161.183 155.999 161.356C155.789 161.589 155.871 162.22 155.999 162.605C156.487 164.064 157.077 165.488 157.764 166.866C158.418 168.033 158.137 169.842 159.808 170.368C159.399 172.842 161.829 172.387 162.939 173.578L160.603 173.286C160.6 173.514 160.568 173.742 160.509 173.963C159.995 175.282 160.252 176.076 161.829 176.297C162.367 176.367 162.834 176.928 163.57 177.465C162.332 177.64 161.058 177.033 160.719 178.434C160.617 178.773 160.584 179.13 160.622 179.483C160.66 179.836 160.769 180.178 160.941 180.488C161.21 180.792 162.227 180.488 162.799 180.406L166.62 182.823C165.581 182.67 164.595 182.27 163.745 181.655C162.717 180.803 161.783 181.562 160.918 181.76C160.579 181.83 160.521 183.243 160.252 184.434C159.084 185.099 159.084 185.111 160.322 186.605C160.544 186.873 160.427 187.41 160.474 187.772L159.119 187.679C158.722 187.679 158.313 187.679 157.95 187.609C157.934 188.035 157.965 188.462 158.044 188.881C158.126 189.149 158.429 189.36 158.768 189.768L157.191 190.445C157.016 190.515 156.857 190.619 156.725 190.753C156.592 190.886 156.488 191.045 156.419 191.22C156.35 191.395 156.317 191.582 156.324 191.77C156.33 191.958 156.375 192.143 156.455 192.313C156.548 192.57 157.284 192.628 157.74 192.733C158.007 192.775 158.276 192.798 158.546 192.803L158.371 194.694L160.976 193.527L161.257 193.947C160.918 194.344 160.649 194.893 160.217 195.114C158.885 195.745 159.119 196.573 159.902 197.916L162.449 195.418C163.617 194.799 163.617 194.799 164.341 193.41C164.458 193.2 164.727 192.908 164.925 192.908C165.436 192.958 165.947 192.809 166.35 192.491C166.753 192.173 167.017 191.712 167.087 191.204C167.087 191.029 167.391 190.9 167.554 190.749C168.898 189.581 170.335 188.414 171.573 187.118C173.326 185.251 174.938 183.231 176.609 181.282L177.029 181.492C177.004 181.839 176.917 182.179 176.772 182.496C175.172 184.69 173.571 186.885 171.889 189.009C170.206 191.134 168.384 193.468 166.421 195.57C163.769 198.511 161.128 201.5 158.243 204.184C155.279 206.888 152.158 209.414 148.896 211.748C145.566 214.165 142.084 216.418 138.544 218.507C135.073 220.566 131.497 222.444 127.831 224.134C122.877 226.398 117.853 228.534 112.759 230.425C108.857 231.873 104.803 232.888 100.807 234.056C98.599 234.698 96.4025 235.375 94.1476 235.818C89.4742 236.74 84.8009 237.558 80.0458 238.34C77.5572 238.76 75.0336 239.04 72.5334 239.379C69.3789 239.799 66.2244 240.347 63.0582 240.546C60.1724 240.756 57.2165 240.616 54.3774 240.546C53.5548 240.48 52.7384 240.351 51.9356 240.161V239.787C53.2441 239.787 54.5527 239.857 55.8496 239.787C58.5017 239.647 61.1421 239.46 63.7942 239.215C64.6024 239.149 65.393 238.944 66.1309 238.608C66.5632 238.41 66.8436 237.814 67.1123 237.347C67.1123 237.277 66.6917 236.775 66.4347 236.74C65.6052 236.635 64.7406 236.67 63.8994 236.612C63.5056 236.562 63.1154 236.488 62.731 236.39V235.888C63.5372 235.888 64.355 235.888 65.1729 235.888C65.7904 235.996 66.4262 235.881 66.9673 235.565C67.5084 235.249 67.9199 234.751 68.1288 234.161C68.257 233.714 68.343 233.257 68.3858 232.795C67.8752 232.66 67.3482 232.597 66.8202 232.608C66.2944 232.702 65.8388 233.133 65.3248 233.285C65.0444 233.355 64.6938 233.157 64.3784 233.075C64.5069 232.807 64.577 232.456 64.7873 232.293C65.3247 231.884 65.9557 231.558 66.5048 231.196C66.7367 231.452 67.0226 231.654 67.3419 231.786C67.6612 231.919 68.006 231.979 68.3513 231.962C68.6967 231.945 69.034 231.852 69.339 231.689C69.644 231.526 69.909 231.298 70.1149 231.021C70.6173 230.262 70.3369 229.62 69.4373 229.655C68.418 229.746 67.404 229.891 66.3996 230.087L65.6285 228.919C66.0237 228.852 66.414 228.758 66.7969 228.639C67.2876 228.429 67.7549 228.161 68.2339 227.916L67.4745 226.503C67.1006 225.814 66.7267 225.114 66.3061 224.449C65.5817 223.281 64.8457 222.114 64.0512 220.947C63.9344 220.783 63.5489 220.76 63.2802 220.737C63.0114 220.713 62.4273 220.737 61.995 220.737H60.6397V220.375L62.8362 220.188C63.0233 219.741 63.0359 219.24 62.8715 218.784C62.7071 218.328 62.3777 217.95 61.9482 217.725C61.7029 217.562 61.3057 217.293 61.3291 217.095C61.3712 216.749 61.3439 216.399 61.2488 216.064C61.1536 215.729 60.9924 215.417 60.7748 215.145C60.5571 214.873 60.2874 214.647 59.9813 214.481C59.6752 214.315 59.339 214.211 58.9924 214.176C59.892 212.694 59.8335 212.472 58.4198 211.538C58.4198 211.048 58.5951 210.313 58.4198 210.184C57.0763 209.309 57.4969 207.85 57.0997 206.682C55.6743 202.492 54.0736 198.359 52.5782 194.192C52.2043 193.188 51.5968 192.92 50.8724 193.714C48.8341 195.733 46.9734 197.924 45.3111 200.262C42.4254 204.873 38.9554 209.169 36.9342 214.27C35.7659 217.211 34.4105 220.106 33.3123 223.036C32.5169 225.23 31.8614 227.472 31.3495 229.748C30.8584 231.714 30.5688 233.724 30.485 235.748C30.485 238.678 29.8423 241.585 30.6018 244.561C31.9226 249.991 34.0911 255.179 37.0276 259.935C39.7914 264.362 43.0873 268.435 46.8417 272.063C49.634 274.724 52.6833 277.082 55.6743 279.557C59.4705 282.525 63.5849 285.062 67.9418 287.121C70.8743 288.627 74.0522 289.619 77.1249 290.845C80.8915 292.643 84.9525 293.747 89.1121 294.102C92.068 294.58 94.9538 295.059 97.9798 295.432C99.7206 295.654 101.485 295.654 103.249 295.759C106.123 295.934 108.985 296.25 111.848 296.25C114.71 296.25 117.398 295.981 120.166 295.724C124.524 295.304 128.894 294.942 133.217 294.265C136.886 293.687 140.515 292.88 144.082 291.849C147.856 290.752 151.548 289.386 155.228 287.985C158.813 286.707 162.323 285.23 165.743 283.561C170.826 280.923 175.803 278.051 180.71 275.075C183.719 273.224 186.61 271.189 189.367 268.981C191.704 267.102 193.76 264.802 196.108 262.888C198.194 261.076 200.057 259.022 201.658 256.771C202.394 255.814 203.247 254.927 204.287 253.725C204.307 254.113 204.307 254.503 204.287 254.892C204.055 256.261 203.343 257.503 202.277 258.394C201.027 259.491 200.688 261.312 199.064 262.211C198.375 262.596 197.195 263.378 197.896 264.405C196.95 265.281 195.396 266.086 195.442 266.81C195.512 268.094 195.069 268.258 194.134 268.468C193.816 268.538 193.534 268.72 193.339 268.981C192.346 270.499 191.423 272.051 189.601 272.763C189.355 272.857 189.18 273.475 189.238 273.802C189.297 274.129 189.823 274.152 190.161 274.199C190.73 274.228 191.299 274.228 191.867 274.199V274.666C191.489 274.81 191.098 274.915 190.699 274.981C189.863 274.911 189.023 274.911 188.187 274.981C187.291 275.259 186.426 275.626 185.605 276.079L185.698 276.814L190.138 277.631V278.028C188.526 278.028 186.925 278.028 185.325 278.028C184.639 278.005 183.959 278.145 183.338 278.436C182.836 278.717 182.556 279.394 182.17 279.884C182.705 280.302 183.311 280.622 183.958 280.829C185.991 281.051 188.047 281.098 190.103 281.215C187.673 282.195 184.916 280.794 182.614 282.382C181.446 280.934 180.464 280.748 178.957 281.612C177.999 282.172 178.221 282.779 178.805 283.818L182.31 282.907L182.427 283.911L179.389 284.915C178.653 283.409 177.24 283.748 175.978 283.911C175.557 283.911 175.207 284.635 174.81 285.02C175.215 285.348 175.658 285.626 176.13 285.849C176.543 285.919 176.966 285.919 177.38 285.849C178.922 285.849 178.922 285.849 179.822 287.156L179.401 287.063C179.013 286.911 178.599 286.838 178.183 286.847C177.766 286.857 177.356 286.949 176.975 287.118C176.595 287.288 176.252 287.531 175.966 287.834C175.681 288.137 175.458 288.494 175.312 288.884C175.229 289.014 175.122 289.126 174.995 289.214C174.869 289.302 174.726 289.365 174.576 289.397C173.937 289.464 173.304 289.581 172.683 289.748C172.274 289.911 172.029 290.436 171.713 290.81C172.076 291.113 172.426 291.662 172.8 291.685C174.237 291.79 175.686 291.685 176.994 291.685C177.368 292.094 177.695 292.759 177.987 292.736C179.343 292.666 180.686 292.409 182.03 292.222C182.322 292.222 182.649 292.036 182.894 292.129C182.993 292.212 183.067 292.319 183.111 292.44C183.154 292.561 183.164 292.691 183.14 292.818C182.952 293.055 182.688 293.22 182.392 293.285C181.509 293.494 180.616 293.658 179.717 293.775C179.436 293.775 179.144 293.588 178.84 293.506C177.658 293.045 176.428 292.72 175.172 292.537C174.611 292.537 174.003 293.425 173.396 293.903C173.945 294.195 174.482 294.709 175.032 294.732C176.387 294.732 177.754 294.569 179.179 294.464L179.483 295.409C178.315 295.631 177.216 295.806 176.118 296.109C175.908 296.168 175.709 296.716 175.721 297.02C175.733 297.323 176.165 297.51 176.422 297.534C178.151 297.639 179.927 297.685 181.714 297.755C181.714 298.724 182.474 298.841 183.677 298.537C184.897 298.299 186.138 298.177 187.381 298.176C187.603 298.176 187.837 298.502 188.175 298.748C184.834 299.191 184.74 299.261 184.121 301.572C183.017 301.606 181.917 301.742 180.838 301.981C180.149 302.191 179.109 302.903 179.121 303.358C179.121 304.712 180.289 303.954 181.037 304.012C181.785 304.07 182.731 304.456 183.374 304.164C184.425 303.662 185.266 302.997 186.154 304.304C186.198 304.358 186.253 304.402 186.315 304.432C186.378 304.463 186.447 304.479 186.516 304.479C188.269 304.141 190.021 303.779 191.867 303.405C192.241 303.545 192.86 304.012 193.386 303.93C194.458 303.717 195.507 303.4 196.517 302.985C197.534 302.623 198.445 301.561 199.637 302.588C199.742 302.681 200.011 302.588 200.186 302.588C202.277 302.087 204.337 301.464 206.355 300.72C209.86 299.25 213.236 297.569 216.613 295.876C217.162 295.608 217.454 294.849 217.863 294.312C220.433 293.028 222.653 291.522 222.711 290.53L220.935 290.401C223.786 288.86 226.357 287.518 228.88 286.094C229.592 285.608 230.257 285.057 230.866 284.448L230.539 283.818L227.583 284.623L234.734 279.265L233.565 278.261C234.734 276.907 236.685 276.207 237.07 274.129L235.691 273.721C236.79 272.787 237.736 272.051 238.577 271.199C238.848 270.766 239.037 270.287 239.138 269.787L237.748 269.658L237.199 269.577C238.239 268.654 239.208 267.907 240.026 267.02C240.307 266.728 240.178 266.063 240.248 265.573C239.81 265.542 239.37 265.593 238.951 265.725C237.327 266.752 235.762 267.872 234.149 268.911C233.67 269.103 233.167 269.229 232.654 269.285C232.803 269.021 232.975 268.771 233.168 268.538C233.338 268.386 233.526 268.256 233.729 268.152C237.012 266.413 239.419 263.658 241.907 261.044C242.164 260.775 242.024 260.133 242.071 259.655L240.902 259.783H240.786C241.475 258.511 242.269 257.18 242.9 255.779C243.099 255.336 242.842 254.705 242.795 254.168L240.879 254.869L243.555 251.705L243.917 251.834C244.01 253.666 244.15 255.511 244.209 257.355C244.267 259.199 244.209 260.857 244.209 262.981C243.917 263.588 242.667 264.382 243.204 265.806H246.639L246.744 266.226L242.713 267.195C242.713 267.662 242.596 268.561 242.865 268.701C243.505 268.961 244.2 269.058 244.886 268.981C245.622 268.981 246.347 268.806 247.293 268.678C247.06 269.145 247.024 269.355 246.943 269.367C245.961 269.612 244.957 269.763 243.987 270.044C243.271 270.208 242.598 270.523 242.012 270.966C241.755 271.188 242.012 271.946 241.954 272.46C242.713 272.46 243.484 272.46 244.291 272.308C244.606 272.308 244.933 271.783 245.178 271.83C247.316 272.308 249.244 271.514 251.23 271.024C251.777 270.954 252.331 270.954 252.878 271.024C251.709 271.703 250.456 272.225 249.151 272.577C247.764 272.847 246.404 273.237 245.085 273.744C244.396 274.094 243.917 274.328 243.239 273.989C242.153 273.44 241.452 274.059 240.902 274.806C240.353 275.553 240.669 276.265 241.627 276.324C242.086 276.307 242.542 276.256 242.994 276.172C243.776 276.172 244.583 276.172 245.33 275.997C246.078 275.822 247.375 275.868 247.877 275.32C249.046 274.152 249.77 274.374 250.646 275.32L248.31 276.487C247.468 276.487 246.791 276.487 246.125 276.487C244.419 276.569 243.04 278.133 241.113 277.503C240.704 277.363 239.944 277.911 239.489 278.32C239.033 278.728 239.173 279.195 239.021 279.639C239.464 279.83 239.941 279.933 240.423 279.942C241.732 279.697 242.9 278.53 244.361 279.452C244.442 279.452 244.629 279.452 244.758 279.382L248.637 277.9C249.571 279.207 247.375 279.067 247.352 279.942C245.015 279.335 242.924 279.487 241.44 281.635C241.21 281.395 240.956 281.179 240.68 280.993C240.266 280.787 239.795 280.724 239.341 280.812C238.887 280.901 238.475 281.137 238.168 281.483C237.98 281.753 237.886 282.077 237.9 282.405C238.448 282.758 239.073 282.975 239.722 283.036C241.316 282.852 242.899 282.587 244.466 282.242C245.085 282.125 245.634 281.833 246.288 281.705C246.622 281.659 246.96 281.659 247.293 281.705V282.102L245.704 283.269C244.98 283.047 244.361 282.627 243.823 282.72C242.786 282.906 241.785 283.252 240.856 283.748C240.435 283.969 240.283 284.693 240.014 285.195C240.482 285.405 241.007 285.861 241.416 285.779C242.818 285.475 244.185 284.997 245.693 284.541L247.761 285.008C246.542 285.429 245.368 285.969 244.256 286.619C244.025 286.75 243.762 286.815 243.496 286.806C242.335 286.646 241.161 286.6 239.991 286.666C239.454 286.736 239.033 287.576 238.566 288.078C239.078 288.315 239.604 288.518 240.143 288.685C240.826 288.826 241.535 288.768 242.187 288.52C242.839 288.272 243.407 287.844 243.823 287.285C243.871 287.842 243.744 288.401 243.461 288.884C243.146 289.444 242.643 289.969 243.461 290.541C244.548 291.335 246.358 290.366 246.826 289.164C247.458 288.055 248.245 287.041 249.162 286.152L249.969 287.145C249.607 288.452 247.246 287.973 247.936 290.028C249.385 289.923 250.938 290.331 252.048 288.861C252.13 288.732 252.562 288.861 252.831 288.861C254.001 289.009 255.188 288.946 256.336 288.674C256.944 288.405 258.311 287.506 257.504 286.141C257.434 286.024 257.762 285.58 257.983 285.394C259.269 284.296 259.292 284.226 258.159 283.059L260.402 281.075L260.939 281.693C260.401 282.373 259.902 283.082 259.444 283.818C259.374 283.946 259.736 284.436 259.993 284.6C260.939 285.195 261.582 284.401 262.33 284.04C262.843 283.855 263.376 283.73 263.919 283.666L264.012 284.133C262.844 284.541 262.178 285.767 260.507 285.44C258.836 285.113 258.17 285.942 258.649 288.289L261.699 286.724C262.053 287.004 262.492 287.156 262.943 287.156C263.395 287.156 263.833 287.004 264.187 286.724C265.134 286.199 265.94 284.81 267.377 285.732C267.377 285.732 267.552 285.732 267.646 285.662L270.859 284.495C274.686 283.241 278.406 281.679 281.981 279.826C285.357 277.888 289.061 276.452 292.204 274.211C296.324 271.163 300.275 267.894 304.039 264.417C307.953 260.915 310.944 256.608 313.993 252.371C316.885 248.51 319.058 244.16 320.408 239.53C320.641 238.643 320.957 237.779 321.214 236.904C321.891 234.487 322.569 232.083 323.223 229.667C323.368 229.086 323.478 228.498 323.551 227.904C323.908 226.16 324.146 224.393 324.263 222.616C324.263 220.41 323.819 218.192 323.807 215.986C323.737 211.155 322.762 206.38 320.933 201.908C320.212 199.885 319.309 197.932 318.235 196.072C316.587 193.422 314.73 190.935 312.813 188.437C311.704 186.967 310.477 185.589 309.238 184.212C308.654 183.558 308 183.336 307.474 184.317C306.645 185.846 305.722 187.34 305.009 188.986C304.448 190.258 303.093 191.321 303.724 193.025C303.841 193.34 304.063 194.939 302.556 194.496C302.415 194.496 302.006 194.928 301.936 195.219C301.691 196.142 301.632 197.134 301.329 198.033C300.815 199.527 300.908 199.842 302.217 200.262C302.527 200.994 302.773 201.752 302.953 202.527C302.953 202.9 302.614 203.332 302.415 203.694L302.112 203.484C301.971 202.772 301.843 202.071 301.679 201.219C300.184 202.305 300.102 203.25 301.212 204.196C301.386 204.304 301.536 204.448 301.65 204.619C301.764 204.789 301.84 204.982 301.873 205.184C301.907 205.387 301.896 205.594 301.842 205.792C301.789 205.99 301.693 206.174 301.562 206.332C301.247 205.538 301.095 204.546 299.962 205.165C299.354 205.527 299.529 207.721 300.125 208.106C301.2 208.807 301.294 209.846 300.359 210.546L299.553 208.842H299.167C298.864 210.079 297.158 210.896 298.221 212.647L298.899 212.402C299.121 212.297 299.319 212.18 299.938 211.842C299.483 213.231 299.167 214.176 298.84 215.18L298.478 215.064L297.905 213.044C297.217 213.341 296.66 213.878 296.338 214.554C296.016 215.23 295.95 216 296.153 216.721C297.847 216.721 297.578 218.157 298.057 219.056C297.181 219.126 296.281 219.406 296.305 218.04C296.305 217.783 295.767 217.34 295.44 217.293C295.113 217.246 294.786 217.667 294.576 217.958C294.365 218.25 294.108 218.869 293.816 219.277C292.403 221.239 292.519 221.554 294.856 221.927C294.845 222.497 295.006 223.057 295.316 223.536C295.626 224.014 296.072 224.389 296.597 224.612C296.728 224.692 296.842 224.797 296.932 224.922C297.022 225.046 297.087 225.187 297.123 225.336C297.403 226.678 297.964 227.507 299.541 226.783C299.775 227.846 299.845 228.709 298.688 228.978C298.174 228.149 297.859 227.087 297.181 226.725C296.828 226.562 296.514 226.326 296.26 226.032C296.006 225.738 295.818 225.393 295.709 225.021C295.537 224.819 295.327 224.653 295.09 224.533C294.853 224.412 294.595 224.34 294.33 224.32C293.634 225.059 293.097 225.933 292.753 226.888C292.66 227.204 293.746 227.846 294.389 228.429L294.879 230.437L295.008 230.694ZM151.7 162.196L151.291 162.348C151.362 161.935 151.362 161.512 151.291 161.099C150.999 160.364 150.461 159.045 150.204 159.08C148.522 159.371 148.767 158.566 149.036 157.48C149.054 156.973 148.898 156.474 148.592 156.068C147.552 154.329 146.571 152.566 145.368 150.932C143.814 148.819 142.061 146.846 140.39 144.815C139.516 143.622 138.559 142.491 137.528 141.43C135.004 139.095 132.387 136.761 129.747 134.543C127.41 132.582 125.073 130.633 122.643 128.823C121.218 127.761 119.571 126.991 118.052 126.045C116.883 125.298 115.785 124.352 114.547 123.71C111.205 121.948 107.794 120.29 104.417 118.551C104.114 118.348 103.879 118.059 103.74 117.722C101.964 114.22 100.235 110.637 98.4588 107.123C96.5661 103.388 94.6266 99.6873 92.6755 95.9869C90.7243 92.2866 88.7732 88.8314 86.9039 85.2127C86.2263 83.9053 86.0276 82.3528 84.7892 81.349C84.693 81.2482 84.6387 81.1147 84.6373 80.9754C84.4153 78.7459 82.8031 77.1233 82.032 75.1389C81.5997 73.9716 80.5248 73.1662 80.7 71.7654C80.7 71.5203 80.3846 71.2284 80.2327 70.9599C79.6602 69.9561 79.0644 68.9755 78.5386 67.9366C78.305 67.458 78.5386 66.6643 78.1647 66.3608C76.8796 65.1935 76.5057 63.6176 75.8281 62.1351C74.0055 58.2363 71.9375 54.4426 69.9864 50.6022C68.1638 47.1003 66.3061 43.5983 64.355 40.0964C62.918 37.5517 61.6912 34.8903 60.3126 32.3105C56.9712 26.0304 53.6531 19.7153 50.1948 13.4936C47.2506 8.19405 44.0376 2.98788 41.1168 -2.26498C40.8828 -2.75424 40.4792 -3.14214 39.9807 -3.35679C39.4823 -3.57143 38.923 -3.59826 38.4063 -3.43229L34.8195 -2.94202C34.0245 -2.9589 33.2329 -2.83235 32.4828 -2.56848C31.7466 -2.16528 30.9152 -1.9677 30.0761 -1.99651C28.9442 -1.9954 27.8396 -1.64925 26.9099 -1.0043C25.709 0.105988 24.6317 1.34274 23.6969 2.68439C23.3706 3.20531 23.104 3.76134 22.9025 4.34196C22.7155 4.20187 22.1664 3.92171 22.2014 3.78164C22.3357 3.13498 22.6023 2.52299 22.9842 1.98399C23.5647 1.38084 24.1938 0.826447 24.8653 0.326431C23.6969 -0.654106 22.6921 -0.654114 21.921 0.244705C21.7603 0.492043 21.5452 0.699478 21.2921 0.851196C21.0391 1.00291 20.7547 1.09489 20.4606 1.12018C19.6544 1.20189 18.4744 1.61045 18.9418 3.05791C19.0119 3.25635 18.5329 3.61822 18.2992 3.91004L17.9487 3.69994L18.2408 2.05403C16.6285 1.24859 15.1681 1.99567 14.4203 3.92172C14.0402 3.61778 13.5935 3.40804 13.1167 3.30968C12.6399 3.21131 12.1466 3.2271 11.6771 3.35577C11.2076 3.48442 10.7753 3.72228 10.4154 4.04991C10.0556 4.37754 9.7785 4.78561 9.60679 5.24076C7.27011 5.0073 6.91962 5.4859 6.47565 7.37693C6.42725 8.05997 6.633 8.73683 7.05347 9.27758C7.47395 9.81832 8.07953 10.1849 8.75392 10.3069L7.74909 11.194C7.22334 10.517 6.76774 10.0267 6.40556 9.46642C5.99743 8.68647 5.53275 7.9374 5.01523 7.2252C4.82044 7.06149 4.59059 6.94476 4.34342 6.88403C4.09625 6.8233 3.83837 6.82022 3.58982 6.875C2.85377 7.08511 2.24628 7.70378 1.52191 7.92557C0.121277 8.17379 -1.18643 8.79482 -2.26349 9.72323C-3.02458 10.5801 -4.07904 11.1214 -5.21941 11.2407C-7.55609 11.1123 -8.51413 13.3185 -10.6405 13.6454C-12.2411 13.9022 -13.6431 15.5131 -15.1269 16.5286L-22.0668 21.1978C-22.9781 21.8282 -23.9011 22.3651 -24.7774 23.0888C-25.6536 23.8126 -26.2611 24.3846 -27.0322 24.9915C-29.0768 26.6024 -31.2266 28.0966 -33.166 29.8125C-36.7878 33.0109 -40.3046 36.3377 -43.8446 39.6295C-44.2077 39.918 -44.4829 40.3021 -44.6391 40.7385C-44.7954 41.2808 -44.7497 41.8614 -44.5106 42.3727C-43.611 43.7968 -42.5711 45.1392 -41.5663 46.4933C-39.7788 48.8979 -37.9562 51.2792 -36.2037 53.6955C-33.2478 57.7928 -30.362 61.9834 -27.3594 66.0223C-22.4913 72.4969 -17.5532 78.9249 -12.5449 85.3061C-10.3017 88.1777 -7.87156 90.8975 -5.53488 93.7457C-3.19821 96.5939 -1.15361 99.5822 1.19475 102.337C4.39599 106.096 7.73744 109.738 11.0672 113.38C13.8829 116.45 16.6752 119.543 19.6428 122.45C23.4165 126.138 27.3188 129.699 31.2444 133.224C33.5811 135.383 36.1981 137.368 38.6633 139.457C40.5093 141.01 42.2968 142.632 44.1311 144.185C45.5798 145.352 47.1221 146.52 48.5124 147.78C48.9405 148.066 49.262 148.486 49.4268 148.974C49.5917 149.461 49.5906 149.99 49.4237 150.477C49.283 151.072 49.283 151.691 49.4237 152.286C49.6574 153.92 50.0079 155.531 50.2299 157.165C50.814 161.461 51.2346 165.768 51.9356 170.006C52.7184 174.803 53.6063 179.589 54.6578 184.328C55.3656 187.259 56.2275 190.15 57.2399 192.99C58.4082 196.55 59.7401 200.075 61.0253 203.601C62.8237 208.788 65.0918 213.801 67.8016 218.577C69.1508 220.969 70.6902 223.249 72.4049 225.394C74.6714 228.079 77.1951 230.554 79.707 233.005C82.4409 235.678 85.28 235.935 88.7733 234.172C89.8815 233.573 91.0585 233.111 92.2783 232.795C93.7621 232.456 94.0775 232.2 93.0961 230.986C92.1933 229.657 91.4336 228.237 90.8296 226.748C90.0935 225.312 89.6612 223.597 87.4647 223.515C89.0303 220.503 86.7404 220.748 85.1281 220.678L87.0909 219.511L85.7005 217.853C85.7823 216.056 85.7005 215.951 84.3686 214.585C84.0649 214.27 84.1817 213.558 84.0531 213.032C83.9246 212.507 83.8545 211.783 83.5508 211.643C82.6044 211.223 82.6162 210.768 82.8031 209.834C83.0368 208.667 83.469 207.138 81.4244 206.799C81.2375 206.799 81.1557 205.807 81.1207 205.282C81.0856 204.756 81.4245 203.974 81.1908 203.531C80.7044 202.792 80.1274 202.118 79.4733 201.523C80.9454 199.305 78.7956 197.262 78.7255 195.044C78.7255 194.939 78.5269 194.846 78.4451 194.741C78.127 194.194 77.9517 193.576 77.9354 192.943C77.919 192.311 78.0622 191.685 78.3517 191.122C80.0108 194.391 81.5646 197.706 83.3522 200.893C86.0861 205.772 88.7966 210.698 91.8693 215.367C94.5916 219.511 97.7111 223.363 100.842 227.274C101.496 228.102 102.139 229.375 103.588 229.06C104.481 228.846 105.359 228.573 106.217 228.242C108.366 227.46 110.528 226.713 112.631 225.826C113.525 225.316 114.363 224.714 115.131 224.028L116.685 223.725C116.616 223.118 116.47 222.522 116.253 221.951C115.773 221.052 115.084 220.27 114.593 219.371C113.916 218.134 112.397 217.527 112.187 215.927C112.034 215.454 111.805 215.008 111.509 214.608C111.299 214.211 111.1 213.815 110.866 213.441C110.633 213.067 110.165 212.717 110.13 212.274C110.09 211.785 109.889 211.324 109.56 210.961C109.23 210.598 108.79 210.354 108.308 210.266C107.28 210.009 106.777 210.768 106.415 211.678C106.31 211.947 105.691 212.099 105.247 212.134C104.803 212.169 104.733 211.853 104.476 211.702C104.671 211.38 104.894 211.075 105.142 210.791C105.469 210.476 105.901 210.278 106.31 209.974C108.039 208.527 108.027 208.083 106.205 206.671C107.069 205.247 105.878 204.464 105.177 203.496L103.681 204.009C103.681 203.285 103.681 202.76 103.763 202.235C103.845 201.71 104.102 200.939 103.88 200.484C102.852 198.383 101.683 196.433 100.515 194.449L101.181 193.667C100.013 193.854 99.6855 193.527 99.7089 192.558C99.8437 191.116 99.4262 189.677 98.5406 188.531C97.6526 187.422 97.6059 185.683 96.9048 184.375C96.2973 183.266 97.8629 180.978 94.7902 181.165L95.9585 180.29C96.0286 179.017 94.393 177.78 96.0871 176.566C96.2646 176.767 96.4211 176.986 96.5544 177.22C97.6526 179.554 98.5639 181.971 99.8374 184.223C101.567 187.247 103.564 190.118 105.469 193.048C107.163 195.663 108.752 198.371 110.598 200.881C113.18 204.383 115.902 207.791 118.636 211.188C120.61 213.639 122.784 215.916 124.676 218.425C125.728 219.826 126.686 219.593 128.099 219.172C131.079 218.215 133.299 215.927 136.196 214.842C137.026 214.538 137.551 213.499 138.322 212.927C139.397 212.134 139.152 211.422 138.322 210.663C137.867 210.219 136.909 209.729 136.967 209.402C137.329 207.348 135.133 206.822 134.63 205.177C134.035 203.262 131.873 202.013 131.347 199.865C131.347 199.702 131.102 199.585 131.009 199.433C130.74 198.99 130.518 198.511 130.226 198.091C129.953 197.751 129.66 197.428 129.35 197.122C129.069 197.426 128.754 197.694 128.497 198.009C128.24 198.324 127.983 199.083 127.726 199.095C126.557 199.095 126.008 199.994 125.237 200.554C124.466 201.114 123.566 201.348 124.232 202.562C124.314 202.713 123.87 203.157 123.683 203.461L123.601 203.005C123.013 202.811 122.398 202.709 121.779 202.702C120.926 202.83 120.797 203.472 121.089 204.266C121.16 204.464 120.821 204.815 120.716 205.013L119.606 203.846C119.968 203.502 120.304 203.131 120.61 202.737C121.089 202.048 121.452 201.383 122.538 201.57C122.889 201.64 123.414 200.963 123.8 200.577C124.186 200.192 124.548 199.48 125.074 199.223C126.526 198.214 127.576 196.726 128.041 195.021C128.205 193.492 126.873 193.527 126.289 192.873C126.466 192.105 126.367 191.299 126.008 190.597C125.36 190.051 124.621 189.624 123.823 189.336C124.501 187.002 124.337 186.71 121.872 185.076C122.211 183.686 122.211 183.698 120.961 182.601C120.729 182.38 120.553 182.108 120.447 181.807C119.886 180.418 120.061 178.597 118.11 178.06C118.028 178.06 117.993 177.827 117.935 177.698C117.257 176.473 117.374 175.025 116.089 173.869C114.804 172.714 115.026 172.282 113.752 173.239C113.413 172.224 113.413 172.224 115.365 171.768C114.722 170.111 113.413 168.663 113.752 166.609C114.354 166.996 114.867 167.505 115.259 168.103C116.802 170.356 118.285 172.655 119.851 174.885C121.271 177.205 122.877 179.407 124.653 181.469C126.522 183.395 127.983 185.729 129.735 187.772C132.703 191.274 135.705 194.682 138.813 198.021C141.267 200.659 143.86 203.145 146.454 205.643C146.875 206.052 147.727 206.531 148.09 206.355C149.736 205.717 151.258 204.797 152.588 203.636C153.36 202.843 154.227 202.149 155.17 201.57C156.233 200.904 157.086 199.387 156.502 198.313C155.674 196.872 154.769 195.477 153.791 194.134C152.839 192.968 151.949 191.753 151.127 190.492C150.672 189.675 150.602 188.647 149.585 188.157C149.48 188.157 149.398 187.819 149.433 187.679C149.76 186.593 148.872 186.184 148.265 186.103C147.833 186.033 147.284 186.768 146.816 187.177C146.548 187.422 146.244 188.029 146.139 187.994C144.807 187.504 144.608 188.484 144.164 189.313C143.954 189.721 143.299 190.258 142.996 190.177C141.827 189.85 141.512 190.609 141.161 191.344C140.893 191.928 140.682 192.511 140.437 193.153L138.93 191.811C139.094 191.729 139.491 191.659 139.561 191.484C140.203 189.675 142.236 189.616 143.335 188.414C144.222 187.528 145.05 186.585 145.811 185.589C146.419 184.714 147.272 183.453 146.174 182.624C145.712 182.358 145.34 181.961 145.105 181.483C144.869 181.004 144.782 180.467 144.853 179.939C144.152 179.274 143.311 178.854 143.253 178.34C142.986 176.984 142.28 175.753 141.243 174.838C140.297 173.776 139.9 172.2 138.778 171.021C138.054 170.251 138.673 168.441 136.92 168.15C136.815 168.15 136.804 167.729 136.698 167.531C136.231 166.632 135.729 165.757 135.215 164.823L134.607 166.515L134.105 166.34C134.257 165.908 134.385 165.477 134.549 165.056C134.876 164.251 134.081 161.391 133.38 161.204C131.604 160.749 131.453 159.15 131.277 157.889C131.079 156.43 130.46 156.091 129.209 156.115C128.776 156.049 128.355 155.919 127.959 155.73L129.478 154.41C129.046 153.967 128.625 153.512 128.181 153.08C128.006 152.893 127.597 152.718 127.609 152.566C127.749 150.862 126.592 150.745 125.12 150.745C125.412 150.267 125.716 149.998 125.751 149.695C125.833 149.076 126.008 148.282 125.751 147.85C125.074 146.959 124.289 146.155 123.414 145.457C123.054 145.22 122.66 145.039 122.246 144.92L121.3 144.488L123.636 144.033C121.544 141.274 119.824 138.252 118.519 135.045C119.687 135.909 119.898 137.695 121.639 137.963C121.755 137.963 121.814 138.372 121.919 138.582C122.134 139.211 122.42 139.815 122.772 140.379C123.742 141.699 124.828 142.936 125.81 144.243C126.487 144.957 127.015 145.798 127.363 146.718C127.493 147.297 127.755 147.838 128.127 148.299C128.5 148.761 128.974 149.13 129.513 149.379C129.721 149.506 129.9 149.676 130.037 149.877C130.174 150.078 130.266 150.307 130.308 150.547C130.224 151.077 130.306 151.621 130.542 152.103C130.778 152.586 131.157 152.984 131.628 153.243L132.714 152.823C132.925 153.5 133.439 154.352 133.228 154.609C132.504 155.508 133.053 156.231 133.485 156.733C134.654 158.111 135.939 159.173 136.184 161.309C136.348 162.733 138.72 163.317 139.362 164.963C139.362 165.033 139.514 165.08 139.596 165.091L143.428 165.617V167.169C142.589 166.576 141.715 166.034 140.811 165.547C140.449 165.383 139.911 165.628 139.444 165.687C139.514 166.013 139.444 166.48 139.666 166.632C140.834 167.543 142.166 168.371 143.428 169.235C142.388 171.138 143.019 172.504 145.216 173.309C145.411 173.434 145.572 173.607 145.682 173.811C145.793 174.015 145.849 174.244 145.846 174.476C145.402 175.936 145.519 176.251 146.921 176.811C147.612 177.156 148.279 177.546 148.919 177.978L147.751 178.865C147.926 180.955 150.882 181.025 150.73 183.266C150.73 183.336 151.057 183.406 151.209 183.511C151.535 183.81 151.896 184.069 152.284 184.282C152.809 184.503 153.373 184.618 153.943 184.62C154.188 184.62 154.422 184.153 154.656 183.908C154.259 183.581 153.838 182.974 153.487 182.998C151.945 182.998 152.389 181.9 152.167 181.118C152.403 181.236 152.61 181.403 152.775 181.609C153.943 182.776 156.478 182.601 156.712 181.212C157.011 179.383 157.16 177.532 157.156 175.679C157.156 174.418 156.852 173.169 154.819 173.216C156.841 172.165 156.841 172.165 155.918 170.332L155.789 170.087C155.648 169.789 155.445 169.524 155.194 169.31C154.943 169.096 154.65 168.937 154.333 168.845C154.016 168.752 153.683 168.727 153.356 168.773C153.029 168.818 152.716 168.932 152.436 169.107C150.613 169.936 150.87 171.722 150.403 173.134C150.239 173.613 150.905 174.36 150.754 174.838C150.562 175.437 150.531 176.074 150.662 176.689C150.793 177.303 151.082 177.872 151.501 178.34C152.074 179.169 151.501 179.893 150.041 180.173C150.041 178.399 150.041 176.671 150.041 174.99C150.142 174.307 150.074 173.609 149.842 172.959C149.153 171.967 149.702 171.161 149.994 170.368C150.393 169.55 150.862 168.769 151.396 168.033C152.413 168.605 153.254 168.278 153.347 167.064C153.425 165.869 153.327 164.67 153.055 163.504C152.798 163.025 152.12 162.628 151.7 162.196ZM-57.6427 22.5869C-57.7676 21.9529 -57.7991 21.304 -57.7361 20.6609C-57.2817 18.8943 -56.7238 17.1559 -56.0654 15.4547C-55.306 13.6103 -54.3479 11.8477 -53.4717 10.0501C-52.3034 7.71546 -51.6841 5.20575 -49.6746 3.4081C-49.5427 3.23293 -49.4546 3.02883 -49.4176 2.81279C-49.0671 1.56377 -49.1021 0.116318 -47.2912 -0.233871C-46.8706 -0.315582 -46.5785 -1.29613 -46.2981 -1.89146C-46.1462 -2.20663 -46.2981 -2.67355 -46.0761 -2.94202C-43.5058 -6.6774 -40.9471 -10.4128 -38.295 -14.0898C-37.3954 -15.3388 -36.1687 -16.3543 -35.1873 -17.5917C-33.8904 -19.1909 -32.8505 -21.0235 -31.4135 -22.506C-29.0768 -24.9574 -26.5766 -27.292 -24.018 -29.5098C-20.992 -32.1479 -17.8725 -34.7043 -14.6713 -37.1323C-11.2864 -39.7309 -7.59381 -41.9029 -3.6772 -43.5992C-3.27996 -43.7743 -3.12808 -44.533 -2.87104 -45.0233C-3.35006 -45.1867 -3.8408 -45.5486 -4.29646 -45.5019C-6.22421 -45.3151 -8.14025 -45.07 -10.033 -44.7315C-13.7366 -44.0661 -17.4986 -43.5642 -21.1088 -42.5603C-24.71 -41.5027 -28.2252 -40.172 -31.6238 -38.5798C-36.4256 -36.3853 -41.1107 -33.9106 -45.7957 -31.576C-50.7611 -29.0196 -54.9205 -25.3543 -58.9746 -21.5839C-59.5001 -21.0212 -59.8032 -20.2869 -59.8274 -19.5177C-59.9676 -9.11705 -60.0377 1.28361 -60.1078 11.6843C-60.1078 12.5481 -59.8625 13.4236 -59.8858 14.2991C-59.8858 16.5403 -60.0845 18.7815 -60.1078 21.0227C-60.1078 24.8281 -60.1078 28.6219 -60.1078 32.4273C-60.1078 35.3806 -60.1078 38.3455 -60.1078 41.2988C-60.1105 41.7935 -59.9639 42.2775 -59.6873 42.6879C-56.5345 46.4944 -52.8287 49.8074 -48.6932 52.5165C-45.7607 54.4543 -42.6763 56.1469 -39.6736 57.9328C-38.774 56.9523 -38.739 56.2986 -39.5218 55.4932C-40.3045 54.6877 -41.7533 53.9524 -41.9285 53.0068C-42.1972 51.5594 -42.5712 51.0691 -44.1017 51.6177C-43.9507 51.2724 -43.8523 50.9065 -43.8096 50.5321C-43.9373 50.0244 -44.0973 49.5254 -44.2886 49.038C-44.7276 49.1753 -45.1506 49.3592 -45.5504 49.5866C-45.9081 49.8819 -46.2332 50.2145 -46.5201 50.5788L-46.9524 50.2637C-46.6677 49.903 -46.4247 49.5114 -46.228 49.0964C-45.971 48.4193 -45.8308 47.7073 -45.6438 47.0186L-47.3029 46.7034L-47.7702 46.5867C-46.3448 45.2326 -47.7001 44.6256 -48.4128 43.6917L-51.357 46.0263L-51.6725 45.6761C-50.723 43.7756 -49.6375 41.946 -48.4245 40.2015C-46.0878 37.3533 -43.6109 34.6802 -41.1224 32.0304C-39.5802 30.3495 -37.7459 28.902 -36.3439 27.116C-34.6047 24.9942 -32.5935 23.1103 -30.362 21.513C-27.745 19.5519 -25.2096 17.4858 -22.4991 15.6765C-19.146 13.4352 -15.6994 11.3224 -12.1943 9.30299C-8.51315 7.08021 -4.71443 5.05782 -0.814766 3.24468C3.85858 1.21358 8.6955 -0.385628 13.4974 -2.06654C16.4766 -3.10545 19.5026 -4.03928 22.552 -4.86807C24.7134 -5.46339 26.9449 -5.84861 29.153 -6.2455C33.1877 -6.96144 37.2224 -7.64626 41.257 -8.29995C43.1381 -8.61512 44.5751 -8.18323 45.2994 -6.14045C45.8247 -4.72704 46.4983 -3.37319 47.309 -2.10157C47.5544 -1.69301 48.2904 -1.58794 48.8162 -1.40118C48.8162 -1.40118 49.1901 -1.91479 49.1433 -2.13658C48.9213 -3.30389 48.6526 -4.56458 48.3372 -5.75523C47.348 -9.42835 46.3432 -13.0937 45.3228 -16.7512C44.9957 -17.9185 44.1545 -18.0236 43.1147 -17.3349C41.69 -16.1744 40.0672 -15.2807 38.3245 -14.6968C34.9714 -13.9497 31.9103 -12.2454 28.382 -12.0703C25.6744 -11.8377 22.9827 -11.4479 20.3204 -10.903C16.533 -10.459 12.7786 -9.76882 9.08101 -8.83691C4.06221 -7.31942 -0.83522 -5.42693 -5.5699 -3.17548C-9.68974 -1.05186 -13.6457 1.37504 -17.4052 4.08514C-20.3494 6.10458 -23.0249 8.53257 -26.1327 11.089C-26.0912 10.5549 -25.965 10.0309 -25.7588 9.53645C-24.5905 7.96059 -23.4221 6.36139 -22.0902 4.86724C-20.2092 2.77776 -18.1763 0.828369 -16.2485 -1.22609C-12.2604 -5.27346 -7.8987 -8.93559 -3.22153 -12.1637C0.170937 -14.4504 3.68074 -16.5583 7.2935 -18.4788C12.4932 -21.4405 17.9718 -23.8842 23.6502 -25.7745C28.4988 -27.432 33.546 -28.5176 38.5114 -29.8367C39.7732 -30.1752 40.1821 -30.8522 39.6797 -32.0196C39.4461 -32.6149 39.1657 -33.1868 38.897 -33.7938C38.7801 -34.1843 38.5243 -34.5185 38.1778 -34.7336C37.8313 -34.9486 37.4181 -35.0295 37.016 -34.9611C34.247 -34.716 31.478 -34.6226 28.7091 -34.3892C26.3724 -34.1791 23.9072 -33.9806 21.5471 -33.5487C19.2892 -33.1165 17.0579 -32.5553 14.8643 -31.8678C11.8033 -30.934 8.74224 -29.9884 5.76299 -28.8328C3.96303 -28.0286 2.22522 -27.0922 0.563873 -26.0313C-2.82431 -24.0819 -6.31763 -22.2842 -9.50719 -20.0664C-12.872 -17.7318 -16.0031 -15.047 -19.1343 -12.3855C-23.0023 -9.17085 -26.5261 -5.56404 -29.6493 -1.62296C-31.8691 1.2486 -34.0423 4.21354 -36.3322 6.99171C-38.4792 9.7717 -40.7846 12.4259 -43.2371 14.9411C-47.186 18.7815 -52.2099 20.7659 -57.6427 22.5869ZM0.540482 -28.7745C1.05455 -28.6461 1.39336 -28.5527 1.70881 -28.4943C2.21745 -28.3366 2.76601 -28.3679 3.25338 -28.5824C3.74075 -28.7969 4.13409 -29.1802 4.36095 -29.6616C4.72314 -30.5954 5.26057 -30.5838 6.03167 -30.6655C7.01312 -30.7886 7.97498 -31.0357 8.89411 -31.4009C9.16283 -31.4943 9.39646 -32.0662 9.3731 -32.4164C9.34973 -32.7666 8.82398 -32.8016 8.49685 -32.9301C8.16971 -33.0585 7.65569 -33.1635 7.2234 -33.2802L7.30512 -33.6304L8.04118 -33.5487C9.72359 -33.3269 11.406 -33.0468 13.1001 -32.9067C13.4506 -32.9067 13.8478 -33.3619 14.21 -33.6188C13.9816 -34.0189 13.7071 -34.3911 13.3922 -34.7277C13.0665 -34.9339 12.7122 -35.0913 12.3407 -35.1946C15.32 -35.1129 18.2408 -33.3736 21.185 -34.9728L21.2785 -35.4514L16.2079 -37.3308C16.8104 -37.3841 17.4164 -37.3841 18.0188 -37.3308C20.3555 -36.8872 22.5987 -36.3503 24.8886 -35.9417C25.6659 -35.8702 26.4481 -35.8702 27.2253 -35.9417C28.0899 -38.0428 26.1388 -37.4709 25.2625 -38.3697C27.4123 -37.8911 29.2115 -37.6226 30.9289 -37.0623C32.2024 -36.6421 32.4711 -37.0623 32.2492 -38.2296C32.8567 -38.2296 33.4175 -38.2296 33.8732 -38.2296C34.4055 -38.0947 34.9491 -38.0088 35.4971 -37.9728C35.925 -38.1136 36.3216 -38.3356 36.6654 -38.6265C36.4139 -39.0291 36.0982 -39.3879 35.7308 -39.6887C35.2568 -39.8887 34.7576 -40.0222 34.247 -40.0856C34.6443 -40.6459 35.4153 -41.2529 35.2868 -41.6615C35.1583 -42.07 34.3872 -42.5953 33.8498 -43.0856L34.6208 -43.926C34.1221 -44.7559 33.3534 -45.3895 32.4433 -45.7209C31.5331 -46.0524 30.5366 -46.0616 29.6204 -45.747C28.0833 -45.2639 26.4527 -45.1558 24.8653 -45.4319C20.0984 -45.8754 15.2615 -45.5836 10.448 -45.5719C10.1771 -45.5525 9.90999 -45.4976 9.65349 -45.4085C4.94929 -44.2118 0.395172 -42.4888 -3.92257 -40.2724C-7.27327 -38.6907 -10.4326 -36.7325 -13.3394 -34.4359C-17.1949 -31.2258 -20.9919 -27.9223 -24.6839 -24.5138C-27.815 -21.6072 -30.7476 -18.4788 -33.7853 -15.4789C-37.9643 -11.1643 -41.7966 -6.52737 -45.2466 -1.6113C-45.6705 -1.12058 -46.0608 -0.601898 -46.415 -0.0587845C-47.5833 2.1591 -48.7517 4.40031 -50.0135 6.62985C-50.8631 7.98215 -51.643 9.37695 -52.3501 10.8088C-52.7777 12.0583 -53.0714 13.3495 -53.2264 14.6609C-53.3783 15.5947 -53.7872 16.8671 -53.3666 17.4157C-52.5137 18.513 -51.4621 17.264 -50.691 16.8555C-47.3171 15.2024 -44.3341 12.8507 -41.9402 9.95668C-39.2881 6.5715 -36.7995 3.06957 -34.0306 -0.210548C-31.2616 -3.49067 -28.4693 -6.33888 -25.6069 -9.32718C-23.2348 -11.8747 -20.5991 -14.1637 -17.7439 -16.1559C-13.9352 -18.7356 -10.1615 -21.3854 -6.27094 -23.8251C-4.67032 -24.829 -3.31499 -26.3114 -1.24704 -26.5449C0.0381317 -26.6033 0.890984 -27.1753 0.540482 -28.7394V-28.7745ZM-13.1758 -2.39339L-12.837 -1.90313C-12.1788 -2.0938 -11.5313 -2.31981 -10.8975 -2.58017C-7.87152 -4.0393 -4.89228 -5.55678 -1.86629 -7.00424C-0.248192 -7.57169 1.31583 -8.2827 2.80706 -9.12874C3.3215 -9.55272 3.92362 -9.85742 4.57011 -10.0209C5.2166 -10.1844 5.89137 -10.2026 6.54575 -10.0742C7.00431 -9.93539 7.49362 -9.93439 7.95275 -10.0714C8.41188 -10.2084 8.82055 -10.4773 9.12779 -10.8447C9.51362 -11.2829 10.0156 -11.6031 10.5759 -11.7684C11.1361 -11.9336 11.7318 -11.9371 12.2939 -11.7785C12.5947 -11.6958 12.905 -11.6526 13.217 -11.6501C14.9344 -11.7902 16.6518 -11.9303 18.3576 -12.1287C20.0634 -12.3271 22.0963 -11.8952 23.4632 -13.6112C23.6151 -13.7979 24.0708 -13.8213 24.3746 -13.798C26.4425 -13.6462 28.5105 -13.4945 30.5784 -13.2727C30.8275 -13.2265 31.0836 -13.2355 31.3288 -13.2992C31.5739 -13.3628 31.802 -13.4795 31.9971 -13.641C32.1921 -13.8024 32.3493 -14.0047 32.4575 -14.2336C32.5656 -14.4624 32.6221 -14.7122 32.623 -14.9653L30.0644 -15.3972C30.7794 -15.6316 31.5344 -15.719 32.2842 -15.654C33.4525 -15.654 34.7026 -15.4672 35.8943 -15.5372C36.3383 -15.5372 36.7473 -16.0975 37.1679 -16.401C36.8246 -16.6889 36.4657 -16.9578 36.093 -17.2065C35.8109 -17.3376 35.5176 -17.4431 35.2167 -17.5217C35.6665 -17.8257 36.2056 -17.9696 36.7472 -17.9302C37.5221 -17.8288 38.3024 -17.7742 39.0839 -17.7668C39.4227 -17.7668 39.9952 -18.3854 39.9601 -18.6656C39.9113 -18.8973 39.8072 -19.1138 39.6567 -19.2967C39.5062 -19.4796 39.3137 -19.6235 39.0956 -19.7162C37.5066 -20.0197 35.8827 -20.1597 34.2821 -20.3699C35.2917 -20.6546 36.344 -20.7574 37.3898 -20.6734C38.9086 -20.5683 40.4158 -20.3349 41.9346 -20.2765C42.215 -20.2765 42.7408 -20.7901 42.7525 -21.0819C42.7642 -21.3737 42.3319 -21.7823 42.0047 -21.9807C41.6911 -22.132 41.3563 -22.2343 41.0117 -22.2842C41.6426 -22.6228 42.5539 -22.7978 42.7642 -23.2881C43.2666 -24.4554 42.2267 -24.7472 41.3739 -24.969C40.7663 -25.1325 40.1354 -25.1908 39.5279 -25.2959C39.6195 -25.3926 39.7333 -25.4655 39.8596 -25.5083C39.9858 -25.551 40.1206 -25.5622 40.2522 -25.541C41.3505 -25.3309 42.1917 -26.1363 41.6192 -27.0118C41.3792 -27.3263 41.0724 -27.5836 40.7209 -27.7653C40.3693 -27.9469 39.9818 -28.0484 39.5863 -28.0624C37.755 -27.9392 35.9353 -27.6817 34.1419 -27.292C27.7839 -25.891 21.5779 -23.8737 15.612 -21.2687C12.1064 -19.7431 8.68241 -18.0365 5.35402 -16.1559C2.64324 -14.7066 0.0285492 -13.0846 -2.47385 -11.2999C-5.72182 -8.96532 -8.79451 -6.3739 -11.9257 -3.85252C-12.3846 -3.40388 -12.8029 -2.9156 -13.1758 -2.39339ZM-59.8274 -22.7161C-59.0096 -23.3231 -58.5306 -23.65 -58.0866 -24.0235C-56.0888 -25.6577 -54.1844 -27.432 -52.0814 -28.9262C-49.4292 -30.8289 -46.672 -32.5799 -43.903 -34.2724C-41.1341 -35.965 -38.0614 -37.7744 -34.9419 -39.3152C-31.8224 -40.856 -28.6562 -42.0233 -25.5952 -43.4474C-25.0461 -43.7043 -24.6839 -44.3813 -24.24 -44.8716C-24.7518 -45.1771 -25.3133 -45.3904 -25.899 -45.5019C-28.3759 -45.5019 -30.8527 -45.3151 -33.3296 -45.2801C-36.5659 -45.2801 -39.8022 -45.2801 -43.0385 -45.2801C-47.8987 -45.2801 -52.7591 -45.2801 -57.6077 -45.2801C-58.776 -45.2801 -59.5821 -44.9416 -59.6639 -43.6226C-59.6639 -43.0272 -59.8859 -42.4552 -59.8975 -41.8482C-59.8975 -39.4086 -59.8975 -36.9689 -59.8975 -34.5293L-59.8274 -22.7161ZM199.695 216.908C200.412 216.802 201.109 216.59 201.763 216.278C203.738 214.982 205.677 213.616 207.523 212.134C207.741 211.88 207.906 211.585 208.009 211.266C208.111 210.947 208.148 210.611 208.119 210.278C208.119 208.375 206.436 207.511 205.303 206.332C204.912 206.009 204.42 205.832 203.913 205.83C202.771 205.688 201.613 205.878 200.577 206.377C199.541 206.876 198.671 207.663 198.071 208.643C197.335 209.746 196.753 210.944 196.342 212.204C196.214 212.735 196.202 213.287 196.306 213.823C196.411 214.359 196.629 214.866 196.948 215.31C197.266 215.754 197.676 216.124 198.15 216.396C198.624 216.668 199.151 216.834 199.695 216.885V216.908ZM165.206 294.3C165.512 294.811 165.959 295.222 166.494 295.483C167.03 295.744 167.629 295.844 168.22 295.771C168.758 295.709 169.303 295.806 169.786 296.051C170.465 296.621 171.29 296.989 172.168 297.113C173.046 297.236 173.941 297.111 174.751 296.751C175.008 296.67 175.394 296.273 175.347 296.156C175.23 295.864 174.926 295.456 174.681 295.444C173.291 295.339 172.087 294.16 170.569 294.814C170.37 294.895 169.961 294.499 169.4 294.172L173.349 293.681C173.104 293.25 173.034 292.888 172.812 292.736C172.308 292.327 171.72 292.034 171.09 291.879C170.46 291.724 169.803 291.709 169.167 291.837C168.442 292.047 168.138 291.966 167.729 291.323C167.45 290.86 167 290.525 166.475 290.389C165.951 290.254 165.395 290.33 164.925 290.6C164.715 290.693 164.61 291.557 164.668 291.58C165.568 291.977 166.479 292.304 167.402 292.608C167.753 292.713 168.185 292.608 168.465 292.783C168.746 292.958 168.465 293.378 168.465 293.681C168.107 293.752 167.738 293.752 167.379 293.681C167.199 293.569 166.999 293.495 166.789 293.464C166.579 293.434 166.366 293.447 166.162 293.503C165.957 293.559 165.767 293.656 165.602 293.789C165.438 293.923 165.303 294.089 165.206 294.277V294.3ZM173.875 302.81C173.992 302.95 174.237 303.44 174.599 303.569C175.257 303.843 175.983 303.911 176.68 303.763C177.377 303.615 178.013 303.258 178.502 302.74C178.7 302.541 178.957 302.121 178.875 301.969C178.785 301.828 178.665 301.708 178.524 301.618C178.383 301.527 178.224 301.468 178.058 301.444C177.064 301.444 176.071 301.642 175.078 301.666C174.63 301.673 174.186 301.578 173.781 301.386C173.256 301.141 172.835 300.58 172.309 300.499C171.297 300.364 170.272 300.364 169.26 300.499C169.049 300.555 168.856 300.665 168.7 300.819C168.544 300.972 168.431 301.164 168.372 301.374C168.4 301.596 168.485 301.807 168.618 301.987C168.751 302.166 168.927 302.309 169.131 302.401C170.615 302.611 172.111 302.658 173.875 302.786V302.81ZM178.548 299.308C177.24 298.012 174.646 297.767 172.344 298.829C172.625 299.144 172.835 299.611 173.115 299.67C174.284 299.892 175.511 299.997 176.714 300.137C177.135 300.195 177.649 300.067 177.964 300.265C178.727 300.803 179.645 301.079 180.579 301.049C181.513 301.02 182.412 300.687 183.14 300.102C182.62 299.414 181.859 298.948 181.01 298.796C180.161 298.645 179.286 298.819 178.56 299.284L178.548 299.308ZM391.314 33.5479C391.314 33.5479 391.115 32.9993 390.893 32.9759C389.817 32.8709 388.733 32.8709 387.657 32.9759C387.41 32.9755 387.166 33.0255 386.939 33.123C386.712 33.2204 386.508 33.3631 386.338 33.5424C386.168 33.7217 386.037 33.9338 385.953 34.1656C385.868 34.3974 385.832 34.644 385.846 34.8903C385.882 35.2821 386.005 35.6609 386.207 35.9984C386.41 36.3359 386.686 36.6235 387.014 36.8397C387.505 36.988 388.033 36.951 388.499 36.7358C388.964 36.5206 389.334 36.1422 389.538 35.6724C390.069 34.905 390.667 34.1862 391.326 33.5245L391.314 33.5479ZM304.787 115.808C304.762 116.026 304.784 116.248 304.851 116.457C304.918 116.667 305.028 116.86 305.175 117.024C305.321 117.189 305.501 117.32 305.702 117.41C305.903 117.5 306.121 117.547 306.341 117.547C307.112 117.664 308.677 116.088 308.409 115.353C308.273 115.023 308.069 114.726 307.809 114.483C307.549 114.239 307.24 114.054 306.902 113.94C306.642 113.923 306.382 113.957 306.136 114.04C305.889 114.123 305.662 114.254 305.467 114.426C305.271 114.597 305.112 114.805 304.997 115.039C304.882 115.272 304.815 115.525 304.799 115.784L304.787 115.808ZM165.942 298.164C167.164 298.896 168.572 299.261 169.996 299.214C170.475 299.214 170.954 298.537 171.445 298.164C170.954 297.825 170.51 297.312 169.973 297.207C168.629 296.938 167.11 296.121 165.942 298.164ZM308.222 132.162C308.981 131.648 309.589 131.263 310.161 130.854C310.991 130.259 310.816 129.687 310.161 129.068C309.063 128.053 308.397 129.232 307.638 129.594C307.446 129.756 307.298 129.964 307.208 130.199C307.119 130.434 307.089 130.687 307.124 130.936C307.194 131.356 307.755 131.671 308.234 132.162H308.222ZM76.3422 236.507V236.017C76.0033 235.83 75.6528 235.48 75.3023 235.48C74.4358 235.48 73.5713 235.562 72.7203 235.725C72.2528 235.78 71.813 235.976 71.4585 236.285C71.295 236.472 71.4585 237.277 71.6221 237.371C72.1054 237.572 72.6339 237.641 73.1526 237.569C73.8291 237.516 74.4963 237.379 75.1388 237.161C75.558 236.978 75.9605 236.759 76.3422 236.507ZM233.53 196.457C231.743 196.562 230.434 196.714 229.698 194.963L228.238 196.947L230.644 197.519C231.166 197.972 231.799 198.279 232.479 198.406C232.747 198.383 233.051 197.391 233.53 196.457ZM164.236 298.888C163.74 299.057 163.256 299.26 162.787 299.495C162.787 299.495 162.881 300.312 163.091 300.405C163.994 300.814 164.944 301.112 165.919 301.292C166.199 301.292 166.701 300.732 166.877 300.335C166.958 300.137 166.573 299.565 166.269 299.425C165.608 299.187 164.928 299.007 164.236 298.888ZM71.6805 232.351C70.1617 232.351 69.0284 233.285 69.1335 234.207C69.1335 234.569 69.6242 235.153 69.9163 235.176C71.0846 235.27 72.6853 234.009 72.4866 233.192C72.3815 232.772 71.8207 232.468 71.6805 232.34V232.351ZM167.8 288.534C167.8 290.506 168.337 290.868 170.393 290.67C170.767 290.67 171.106 290.18 171.468 289.923C171.164 289.514 170.931 288.849 170.545 288.755C169.639 288.591 168.72 288.512 167.8 288.522V288.534ZM291.526 226.491C292.229 225.622 292.865 224.701 293.431 223.737C293.536 223.538 293.01 222.733 292.648 222.639C291.807 222.406 290.557 223.807 290.592 224.974C290.603 225.336 291.047 225.709 291.526 226.48V226.491ZM173.092 289.281C173.84 288.499 174.739 287.997 174.728 287.483C174.728 286.397 173.559 286.526 172.823 286.468C172.087 286.409 171.036 286.281 171.199 287.331C171.293 287.95 172.251 288.44 173.092 289.269V289.281ZM164.633 297.825C164.902 297.58 165.708 297.148 165.65 296.857C165.416 295.526 164.178 295.526 163.173 295.467C162.846 295.467 162.168 296.063 162.191 296.366C162.262 297.604 163.372 297.604 164.633 297.814V297.825ZM313.561 129.033C312.767 129.699 311.984 130.282 311.306 130.971C311.166 131.099 311.306 131.741 311.528 131.928C311.678 132.023 311.847 132.083 312.023 132.104C312.199 132.124 312.378 132.104 312.545 132.045C313.197 131.617 313.804 131.125 314.356 130.574C314.457 130.462 314.53 130.327 314.569 130.181C314.608 130.035 314.611 129.881 314.578 129.734C314.437 129.512 314.04 129.337 313.561 129.022V129.033ZM288.068 230.402C288.834 229.717 289.56 228.988 290.241 228.219C290.452 227.939 290.311 227.402 290.335 226.982C289.867 226.982 289.26 226.853 288.991 227.087C288.431 227.637 287.965 228.276 287.612 228.978C287.449 229.2 287.823 229.667 288.068 230.39V230.402ZM157.869 293.436C157.869 295.246 158.64 295.958 160.03 295.713C160.381 295.713 160.953 295.432 160.988 295.211C161.006 295.012 160.972 294.812 160.89 294.63C160.808 294.449 160.681 294.291 160.521 294.172C159.652 293.88 158.767 293.642 157.869 293.46V293.436ZM236.988 286.432C237.97 285.931 239.255 286.432 239.243 284.985C239.243 284.576 238.741 284.168 238.472 283.759L236.135 285.475L236.988 286.432ZM314.613 133.014C313.024 132.839 312.101 133.364 312.136 134.496C312.193 134.726 312.309 134.936 312.473 135.106C312.637 135.276 312.843 135.4 313.071 135.465C314.122 135.605 314.694 134.636 314.613 133.014ZM157.962 298.024C158.406 298.526 158.546 298.864 158.768 298.923C159.42 299.115 160.098 299.205 160.778 299.191C160.988 299.191 161.152 298.479 161.327 298.094C160.768 297.784 160.171 297.548 159.551 297.393C159.107 297.358 158.628 297.744 157.962 298.024ZM302.404 252.499L304.004 250.678C303.549 250.363 302.964 249.721 302.649 249.826C302.047 250.12 301.546 250.588 301.212 251.168C301.153 251.238 301.831 251.845 302.404 252.476V252.499ZM163.255 294.522C163.827 293.962 164.423 293.635 164.423 293.355C164.33 291.919 162.939 292.491 162.156 292.094C162.04 292.094 161.607 292.608 161.327 292.888L163.255 294.522ZM70.6641 237.324C70.0215 236.729 69.4957 236.028 69.3087 236.157C68.6311 236.493 67.9958 236.908 67.4161 237.394C67.7899 237.733 68.2105 238.375 68.5844 238.328C69.3262 238.083 70.0272 237.729 70.6641 237.277V237.324ZM236.135 192.418C235.528 191.251 234.967 190.562 233.904 190.445C233.565 190.445 233.168 191.052 232.736 191.391C233.063 191.729 233.355 192.278 233.752 192.383C234.545 192.469 235.344 192.465 236.135 192.371V192.418ZM302.439 253.41L302.544 254.215C303.091 254.343 303.656 254.374 304.214 254.308C305.184 254.005 305.383 253.234 304.88 251.974L302.439 253.41ZM236.591 286.666C235.762 287.413 234.652 287.938 234.593 288.569C234.535 289.199 235.575 289.397 236.358 289.071C237.421 288.569 237.105 287.868 236.591 286.619V286.666ZM309.028 132.675C308.933 132.897 308.888 133.137 308.898 133.377C308.907 133.618 308.97 133.854 309.082 134.068C309.194 134.281 309.352 134.467 309.545 134.612C309.737 134.757 309.96 134.857 310.196 134.905C310.337 134.905 310.897 134.181 310.932 133.738C311.119 132.243 310.009 132.664 309.086 132.629L309.028 132.675ZM287.612 231.172L287.986 230.262C287.589 230.145 287.087 229.818 286.818 229.958C286.201 230.337 285.625 230.779 285.101 231.277C285.381 231.534 285.743 232.071 285.942 232.013C286.551 231.787 287.132 231.489 287.671 231.126L287.612 231.172ZM228.027 204.044L229.196 202.819C228.763 202.492 228.354 201.978 227.887 201.92C227.42 201.861 227.057 202.375 226.637 202.632L228.027 204.044ZM224.99 206.904C225.527 206.262 226.053 205.9 226.064 205.55C226.076 205.2 225.445 204.383 225.305 204.453C224.768 204.637 224.297 204.974 223.95 205.422C223.856 205.515 224.464 206.134 224.99 206.857V206.904ZM223.658 204.803C223.085 203.752 222.338 203.426 221.461 203.927C221.193 204.091 221.029 205.095 221.193 205.188C222.022 205.819 222.84 205.387 223.658 204.756V204.803ZM224.639 203.18L226.018 201.71C225.616 201.436 225.185 201.209 224.733 201.033C224.589 200.967 224.431 200.943 224.275 200.964C224.119 200.984 223.971 201.047 223.85 201.147C223.728 201.247 223.637 201.379 223.586 201.528C223.536 201.677 223.528 201.837 223.564 201.99C223.634 202.282 224.137 202.585 224.639 203.134V203.18ZM268.966 218.997L268.861 219.698C269.503 219.943 269.655 221.285 270.742 220.41C271.045 220.176 270.987 219.488 271.104 218.997H268.966ZM266.395 218.472C266.933 219.371 267.669 219.639 268.487 219.021C268.564 218.852 268.605 218.669 268.605 218.484C268.605 218.298 268.564 218.115 268.487 217.947C267.786 217.573 266.933 217.13 266.419 218.425L266.395 218.472ZM240.774 290.506C239.477 289.222 238.834 289.211 237.876 290.378C238.753 291.347 239.687 291.113 240.774 290.46V290.506ZM227.116 200.472L228.284 199.177L227.116 198.231C226.824 198.605 226.403 198.931 226.31 199.398C226.31 199.55 226.754 199.912 227.116 200.426V200.472ZM271.653 216.418C271.267 217.783 271.653 218.309 272.599 218.157C272.985 218.157 273.312 217.667 273.662 217.398L271.653 216.418ZM156.49 296.238C155.777 295.864 155.322 295.467 154.995 295.514C154.667 295.561 154.34 296.074 154.013 296.378C154.382 296.702 154.805 296.959 155.263 297.137C155.52 297.137 155.882 296.658 156.49 296.191V296.238ZM231.38 200.437L231.45 199.468C230.801 199.433 230.149 199.433 229.499 199.468C229.429 199.468 229.406 200.04 229.359 200.344L231.38 200.437ZM269.305 216.78L269.912 217.211C270.279 216.829 270.611 216.415 270.905 215.974C270.905 215.974 270.403 215.519 270.134 215.274L269.305 216.78ZM260.904 218.005L261.512 218.659L262.785 217.667C262.517 217.433 262.108 216.955 262.014 217.001C261.609 217.295 261.237 217.631 260.904 218.005Z" fill="#FFEEDD"/>
</g>
</svg>
